<svg id="레이어_1" data-name="레이어 1" xmlns="http://www.w3.org/2000/svg" viewBox="0 0 215.25 34.75"><defs><style>.cls-1{fill:#777;}</style></defs><title>대지 1</title><path class="cls-1" d="M89,4.73s0,0,0,0l.7-.11a6.33,6.33,0,0,0,.67-.14s.05,0,.08,0,.06,0,.07,0a.16.16,0,0,1,.12-.05h.14l.14,0A.11.11,0,0,0,91,4.39s0,0,0,0a.07.07,0,0,0,0,.06.15.15,0,0,1,.14,0,.14.14,0,0,0,.14-.05,3.76,3.76,0,0,0,.79,0,3.62,3.62,0,0,1,.86,0,0,0,0,0,0,0,0s0,0,0,0a.8.8,0,0,0,.3.08.76.76,0,0,0,.31,0,.22.22,0,0,0,.23.08.33.33,0,0,1,.24.05s0,0,0,0,0,0,0,0a1.22,1.22,0,0,1,.46.15.94.94,0,0,1,.34.35.18.18,0,0,0,.05.14l.1.09a.1.1,0,0,0,0,.11.12.12,0,0,1,0,.13,4.09,4.09,0,0,0-.61-.09l-.57-.06-1.32.08-1.27.08-.83.14-.89.14s-.1.06-.19,0a1.25,1.25,0,0,1-.41.13,1.34,1.34,0,0,0-.4.11.35.35,0,0,0-.13.18c0,.08-.06.17-.09.27s-.06.19-.09.27a.32.32,0,0,1-.15.18.42.42,0,0,1-.07.3,1.23,1.23,0,0,0-.14.37,2.12,2.12,0,0,1-.15.39l-.19.39a1,1,0,0,0-.09.28,1.58,1.58,0,0,1-.09.31,2,2,0,0,1-.11.22l-.11.2a3.18,3.18,0,0,0-.15.41,3.21,3.21,0,0,1-.15.41.36.36,0,0,0-.12.19l-.07.25a.15.15,0,0,0,.08,0s.05,0,.05-.06a.49.49,0,0,0,.2,0l.22,0s0,0,0,0,0,0,0,0a1.4,1.4,0,0,0,.31,0l.44-.06.42-.1a1,1,0,0,0,.26-.11.2.2,0,0,0,.19,0,.26.26,0,0,0,.14-.08s0,0,0,0,0,0,0,0,0,0,0,0,0,0,0,0l.06,0a.09.09,0,0,1,.08,0l0,0s0,0,.07,0,0,0,.07,0l.05,0a.08.08,0,0,1,.07,0s0,0,.08,0,.08,0,.08-.07,0,0,0,.07a.11.11,0,0,1,.1-.07s0,.05,0,.05l.13,0,.16,0a.2.2,0,0,1,.13,0l-.32.09a.62.62,0,0,1-.3,0s0,0,0,.05,0,0,0,0,0,0-.06,0a.06.06,0,0,1,0-.07.51.51,0,0,1-.19,0,.1.1,0,0,0-.11.08,0,0,0,0,0,0,0l-.07,0s0,.06-.07.05-.07,0-.05.05,0,0,0,0,0,0,0,0l-1.32.27-.24.08a.47.47,0,0,1-.21,0,.09.09,0,0,1-.11,0q-.08,0-.08.07c-.08,0-.13,0-.16,0l-.09.08s0,0,0,0,0,0,0,0a.63.63,0,0,0-.05.14l0,.16a4.41,4.41,0,0,0,.69-.1l.8-.19.84-.22.8-.18s0,0,0,0a.06.06,0,0,0,0,0s.07,0,.07.07l.19,0s0,0,0,0,0,0,0,0,.05,0,.06,0,0,0,0,0,0,0,0,0,0,0,0,0a.16.16,0,0,1,.13,0l.17,0a.28.28,0,0,1-.14.25.9.9,0,0,1-.32.12l-.38.06a1.49,1.49,0,0,0-.33.08,1.2,1.2,0,0,0-.31,0,.35.35,0,0,0-.26.16s-.06,0-.14,0l-.26.06-.26.08-.14.06a3.45,3.45,0,0,0-.56.08,5,5,0,0,1-.6.09l-.07.07-.07.07a4.6,4.6,0,0,0,.63-.12,5.11,5.11,0,0,1,.58-.12s.06,0,.16-.07l.31-.06.31-.05c.1,0,.15,0,.16-.06a1.63,1.63,0,0,0,.35,0l.4-.09.4-.09a1.24,1.24,0,0,1,.37,0,2.68,2.68,0,0,1-.62.35,2.57,2.57,0,0,1-.78.17l-.05.05a.27.27,0,0,1-.12,0l-.15,0h.12l0,0-.19,0-.33.08.2-.06.19-.06-.18,0-.18,0-.19,0v0h.07l-1.3.34h-.21l-.16,0a4.93,4.93,0,0,0-.2.6,2.68,2.68,0,0,1-.22.56.86.86,0,0,1,0,.29,1,1,0,0,1-.11.22,3,3,0,0,1-.17.82,2.93,2.93,0,0,0-.17.8.88.88,0,0,0-.08.4A.44.44,0,0,1,85,16a1.21,1.21,0,0,1,0,.33c0,.15-.05.31-.08.48s-.07.32-.1.46a1.63,1.63,0,0,1-.08.28,3.81,3.81,0,0,1,0-.48l.08-.64.08-.61a1.87,1.87,0,0,0,0-.41,1.21,1.21,0,0,0,.13-.51.89.89,0,0,1,.13-.46s0,0,0,0,0,0,0-.06h0a.06.06,0,0,1,0-.08.11.11,0,0,0,0-.11h.07s0-.06,0-.07a.25.25,0,0,0,0-.08h.05a.16.16,0,0,1,0-.08.11.11,0,0,0,0-.07l0,0s0,0,0,0,0,0,0,0,0,0,0,0,.05,0,.05,0a.05.05,0,0,1,0-.05q0-.08,0-.11s0-.06,0-.13,0,0,0,.07,0,0,0-.08a.12.12,0,0,1,.08,0s0,0,0,0,0,0,0,0,0,0,0,0h.06a.1.1,0,0,0,0-.06.1.1,0,0,1,0-.06s.06,0,.05-.07,0-.07,0-.07,0-.07,0-.08,0,0,0-.06,0,0,0-.05a.22.22,0,0,0,0-.1.79.79,0,0,0-.17.46,1.06,1.06,0,0,1-.15.5q-.13.83-.31,1.6A8.9,8.9,0,0,0,84.66,17a.34.34,0,0,1,0,.32.8.8,0,0,0,0,.42l-.08,0s0,.05,0,.12-.09,0-.09.06,0,0-.11,0a.41.41,0,0,0-.19-.14.38.38,0,0,1-.19-.15s0,0,0,0,0,0,0-.05h0l0-.06a0,0,0,0,0,0,0s0,0,.05,0a4.46,4.46,0,0,1-.06-.89,5,5,0,0,1,.09-.94s0,0,0,0,0,0,0,0a1,1,0,0,0,.08-.4.86.86,0,0,1,.08-.39.85.85,0,0,1,0-.29.61.61,0,0,0,0-.28.14.14,0,0,0,.07-.15.26.26,0,0,1,0-.19s0,0,0,0,0,0,0,0a.17.17,0,0,0,.07-.22,2.13,2.13,0,0,0,.15-.46,3.54,3.54,0,0,1,.13-.48l-.05,0a.12.12,0,0,0,.07-.12.13.13,0,0,1,.05-.12,0,0,0,0,1,0,.05.07.07,0,0,0,0,.07.09.09,0,0,0,.08-.08,1,1,0,0,0,0-.13s-.06,0-.05,0,0,.06,0,.06a.14.14,0,0,0,0-.08.1.1,0,0,1,0-.06c-.08,0-.11,0-.1.08a1,1,0,0,0-.34,0l-.33.1-.33.09a.92.92,0,0,1-.35,0A1.86,1.86,0,0,1,83,12c0-.2-.08-.4-.11-.6a.34.34,0,0,0,.15,0l.13-.06a.22.22,0,0,1,.12,0,.17.17,0,0,1,.11.08,1.72,1.72,0,0,1,.39-.08,1,1,0,0,0,.37-.12.68.68,0,0,0,.4-.06A.86.86,0,0,1,85,11s0,0,0,0,0,0,0,0A.08.08,0,0,1,85,11a.59.59,0,0,0,.22-.4s0,0,.05,0,0,0,.05,0,0-.07,0-.07,0,0,0,0,0,0,0,0a0,0,0,0,0,0,0,.2.2,0,0,0,.07-.13s0,0,0,0h-.07c0-.06,0-.09.06-.1s0,0,0-.1.05,0,.05,0l0-.05s0,0,0,0,0,0,0,0l.09-.27a.45.45,0,0,1,.14-.22.07.07,0,0,1,0-.11s.06-.08,0-.14.08,0,.08-.07,0,0,0,0,0,0,0,0l0,0,0,0a.25.25,0,0,1,0-.08.08.08,0,0,0,0-.06,0,0,0,0,0,.05-.05A0,0,0,0,1,85.93,9s0,0,0,0,0,0,0,0,0,0,0,0h0s0,0,0,0,0,0,0,0H86a.21.21,0,0,1,0-.17.74.74,0,0,0,.09-.19c-.06,0-.07-.06,0-.09s0-.07,0-.13a.28.28,0,0,0,.16-.17c0-.09,0-.16,0-.2l.05,0,.05,0s-.05,0,0-.05,0,0,0-.05a.18.18,0,0,0,.09-.09.21.21,0,0,0,0-.18s0,0,0,0,0,0,0-.05,0-.05,0-.05,0,0,0,0,0,0,0,0a.34.34,0,0,1,0-.19L86.62,7s0,0,0,0,0,0,0,0a.23.23,0,0,1,.05-.12.23.23,0,0,0,.05-.12h-.09s0,0,0,.06,0,0,0-.05L85.28,7q-.67.13-1.26.19a5.28,5.28,0,0,1-.81.11,4.3,4.3,0,0,1-.81,0,.07.07,0,0,0,0-.07s0,0,0-.08h-.05A.29.29,0,0,0,82.18,7c-.05,0-.06-.11,0-.22a.1.1,0,0,0-.12,0L82,6.57a.93.93,0,0,1,0-.25.19.19,0,0,1,0-.11.09.09,0,0,1,.07,0h.08l.19,0h.17a7.45,7.45,0,0,0,.82-.1A4.29,4.29,0,0,1,84.07,6s.09-.05.2-.06h.2l.08,0,.08,0s0,0,0,0,0,0,0,.05a.36.36,0,0,0,.17,0,.31.31,0,0,0,.13-.06s0,0,0,0,0,0,0,0,0,0-.1,0,0,0,0,0,.06,0,.06,0,.08,0,.1,0l0,0-.07.05a0,0,0,0,0,.05,0l.05,0s0,0,0,0a0,0,0,0,1,0,0s.05,0,.05,0,0,0,.05,0l0,0,.06,0,0-.06.08,0s0,0,0,0,0,0,0,0,0,0,.06,0,0,0,.09,0a.19.19,0,0,1,0-.08l.06-.06s0,0,0,0,0,0,0,0,0,0,0,0,0,0,0,0,0,0,0,.05l.05,0,.05-.06a.16.16,0,0,0,.19,0,.26.26,0,0,0,.14-.14s0,0,0,0,0,0,0,.06a4,4,0,0,1,.73-.22,0,0,0,0,0,0,0l.12,0a.09.09,0,0,1,.1,0s0,0,0,0,0,0,0,0a.17.17,0,0,0,.18,0,.28.28,0,0,0,.08-.16s.05,0,.05,0,0,0,0,0a3.61,3.61,0,0,1,.19-.55q.12-.28.22-.55a.07.07,0,0,1,0-.1.28.28,0,0,1,.14,0,.33.33,0,0,1,.16,0,.18.18,0,0,1,.09.11.27.27,0,0,1,.29,0,.92.92,0,0,1,.18.22.3.3,0,0,1,.19.05.26.26,0,0,1,.09.13,1.74,1.74,0,0,1,0,.18.58.58,0,0,0,.05.16h0v0h0ZM83.45,6.09h.15a.34.34,0,0,0,.17,0s0,0,0,0a.15.15,0,0,1-.15,0Q83.48,6,83.45,6.09Zm.35,0s0,0,0,0,0,0,0,0Zm.07,0,.23,0A.44.44,0,0,0,84.29,6,.6.6,0,0,0,84,6ZM84,16.23s0,0,0,0,0,0,0,0a0,0,0,0,0-.05,0S84,16.23,84,16.23Zm0,.51s0,0,0-.08,0-.08,0-.08a.11.11,0,0,1,0,.08A.08.08,0,0,0,84,16.74Zm0-.3a.06.06,0,0,1,0-.06s0,0,0,0a.08.08,0,0,1,0,.06S84,16.44,84,16.44Zm0-.83a.44.44,0,0,1,0,.22.2.2,0,0,0,0,.2.44.44,0,0,1,0-.22A.2.2,0,0,0,84.06,15.61Zm.2.14a8.67,8.67,0,0,1,.3-1.78q.24-.9.45-1.78h-.07a21.33,21.33,0,0,0-.58,2.17,13.09,13.09,0,0,0-.28,2.4,3.4,3.4,0,0,0,.1-.5Q84.21,16,84.26,15.74Zm0-1.18a.46.46,0,0,0-.09.31.86.86,0,0,0,0,.31.39.39,0,0,0,0-.2.21.21,0,0,1,.05-.19.21.21,0,0,1,0-.13A.6.6,0,0,1,84.23,14.56Zm0-.3a.45.45,0,0,1-.06.15s0,.08,0,.12q.07-.3.11-.56a2.75,2.75,0,0,1,.14-.53l0-.05a1.34,1.34,0,0,0-.11.4A3.34,3.34,0,0,1,84.26,14.26Zm.05,2.61h0v0h0v-.1h-.05v0l0,0v0h0v0h-.05a.37.37,0,0,1,0,.27s0,0,0,0,0,0,0,0h0v0h0v.2h0v.07h0v-.08h0v-.29l0,0V17h0v-.05l0,0Zm-.08-.17v0h0v0Zm0,.84s0,0,0-.05,0,0,0,0a0,0,0,0,1,0,.06S84.23,17.55,84.26,17.55Zm0-1.33v0l0,0,0,.19v0h0v0h0v0h0v.07h0v0l0,0h0v-.15h0v-.12l0,0v-.12Zm0,0h0v0h0Zm0,.49h.05s0,0,0,0,0,0,0,0h0Zm.08-1,.12-.44a.64.64,0,0,0,0-.44.91.91,0,0,1,0,.27.49.49,0,0,0,0,.27h-.05s0,0,0,0,0,0,0,0a.13.13,0,0,0,0,.13A.32.32,0,0,1,84.34,15.69Zm0-9.72h.07s0,0,0,0,0,0,0,0,0,0,0,0Zm.05,9.83v.05h0v-.05l0,0v0h0v0h0v0Zm0,1.08,0,0s0,0,0,0Zm.05-.3s0,0,0,0,0,0,0,0h0S84.4,16.59,84.41,16.59Zm.15-3.64a1.57,1.57,0,0,0-.06.18,1.7,1.7,0,0,1-.06.18.13.13,0,0,0,.11-.15A.76.76,0,0,1,84.56,12.94Zm-.08.4s0,0,0,0A.05.05,0,0,0,84.48,13.35Zm.51-.62a.73.73,0,0,0,.12-.28,2,2,0,0,1,.08-.3,1.1,1.1,0,0,0-.24.56,2.22,2.22,0,0,1-.19.63.35.35,0,0,0,0,.13,1.09,1.09,0,0,0-.15.46,2.37,2.37,0,0,1-.12.51s0,0,0,0,0,0,0,.05l0,0a0,0,0,0,0,0,0s0,.06,0,.11a.08.08,0,0,0,0,.13.2.2,0,0,0,0-.19.18.18,0,0,1,.06-.19,3.56,3.56,0,0,1,.18-.91A4.24,4.24,0,0,0,85,12.72Zm-.46,2.36v0h0v0Zm.08,1.82v0h0v0h0v0h0v0h0s0,0,0,0h0l0,0Zm-.05.17a0,0,0,0,1,0,0l0,0S84.55,17.08,84.56,17.08Zm0-4.2a0,0,0,0,0,0,0h0v0Zm0,1.79s0,0,0,0a0,0,0,0,1,0-.05h0s0,0,0,0A.08.08,0,0,1,84.6,14.66Zm.05-2.06a.38.38,0,0,0-.05.11.17.17,0,0,0,0,.13l0-.09,0-.09Zm0,4.35a0,0,0,0,0,.05,0s0,0,0,0,0,0,0,0S84.59,16.94,84.61,17Zm.1-11.12s0,0-.07,0A.1.1,0,0,1,84.71,5.84Zm.05.07h0v0h0Zm0,8h0v0h0Zm.1-.32s0,0,0,0,0-.05,0,0A.19.19,0,0,0,84.87,13.6Zm0-2.33v0h.05v0Zm0-5.08s.06,0,.05-.05H84.9ZM85.17,11s0,0,0,0,0,0,0,0Zm.07-.19s.06,0,.07,0a.09.09,0,0,0,0-.09Zm.05.52s0,0,0,0,0,0,0,0a0,0,0,0,1,0,0Zm.07-.07s0,0,0,0,0,0,0,0h.05Zm0-.12s0,0,0,0,0,0,0,0,0,0,0,0S85.35,11.13,85.34,11.16ZM86.6,7.71a1.12,1.12,0,0,0,.2-.47h-.07q-.14.39-.3.8l-.3.77a.37.37,0,0,1,0,.08.15.15,0,0,0,0,.08s0,0,0,0l0,0a4.78,4.78,0,0,1-.35.94,4.05,4.05,0,0,0-.33,1h.1q.3-.83.57-1.61t.59-1.56s0,0,0,0S86.6,7.74,86.6,7.71Zm-1.16,5.62h0v0h0Zm.07-2.13c-.06,0-.07,0-.05.08h.05s0,0,0,0S85.52,11.23,85.51,11.21Zm-.05-.07,0,0s0,0,0,0,0,0,0,0S85.49,11.14,85.46,11.14Zm0,1.64c.08,0,.11,0,.08-.08h-.05s0,.05,0,.05S85.46,12.75,85.47,12.77Zm0-6.68a.26.26,0,0,0,.22,0c.08,0,.14,0,.19,0s0,0,0,0l0,0a.15.15,0,0,0,.1.05l.1,0,.12,0a.28.28,0,0,1,.14,0,.38.38,0,0,1,.17-.07l.2,0,.18-.07A.15.15,0,0,0,87,5.69a0,0,0,0,1,0,0s0,0,0,0,0,0,0,0,0,0,0,0,0,0,0-.05l-.1,0a.11.11,0,0,1-.1,0h.05s0,0,0,0h-.16c-.05,0-.08,0-.09.08s0,0,.05,0,0,0,.05,0a.09.09,0,0,1-.09,0,.15.15,0,0,0-.11,0,.06.06,0,0,1,0-.06s0,0,0,0,0,0-.1,0,0,.06,0,.06-.06,0-.06,0,0,0,0,0,0,0,0,0,0,0,0,0,0,0,0,0a.07.07,0,0,0,0,0,0,0,0,0,1,0,0,.1.1,0,0,1-.13.05c-.06,0-.1,0-.11.05a.08.08,0,0,0,.1,0l.1-.05a0,0,0,0,0,0,0,0,0,0,0,1,0,0l-.38.16a2.8,2.8,0,0,1-.43.13Zm0-.22v0h.05v0Zm.1-.2s0,0-.07,0Zm0,5.26v0h0v0Zm0-.05q.12-.24.24-.52a1.71,1.71,0,0,0,.14-.52q-.1.24-.19.5T85.57,10.89Zm0,1.67a.1.1,0,0,0,0-.08.11.11,0,0,1,0-.08.19.19,0,0,0-.07.07S85.59,12.53,85.61,12.56Zm.17-6.75v0h.05l0,0ZM85.86,9s0,0,0,0h-.07V9Zm-.05-2.68.07,0a.11.11,0,0,1,.08,0V6.25l-.1,0-.07.05A0,0,0,0,1,85.81,6.33Zm.05-.67s0,0,0-.05h0s0,0,0,0S85.86,5.63,85.86,5.66Zm.08,4.17a2.89,2.89,0,0,0,.19-.37,1.92,1.92,0,0,0,.12-.39Zm0-4v0h0a0,0,0,0,1,0,0Zm.57.42s.06,0,.1,0a.19.19,0,0,1,.13,0s0-.07,0-.07h0s0,0,0,0,0,0,0,0h.08s0,0,0,0a.74.74,0,0,0-.46.05,1.73,1.73,0,0,1-.46.14l.05.06.05,0a.4.4,0,0,1,.23-.06A.29.29,0,0,0,86.55,6.2Zm-.44,2.14a.25.25,0,0,1,0,.05s0,0,0,0,0,0,0-.05S86.14,8.35,86.11,8.34Zm.05-2.8v0h.05l0,0ZM86.23,8h0V8h0Zm.1,3.71s0,0,0,0,0,0,0,0,0,0,0,0-.06,0,0,0a.29.29,0,0,1,.13,0s0,0,0,0,0,0,0,0S86.34,11.75,86.33,11.75Zm0-2.83a.06.06,0,0,1,0-.08s0,0,0-.06,0,0-.05.08S86.31,8.92,86.33,8.91Zm2.23,2.31-.49.09-.62.13-.62.15-.46.13.46-.07.62-.13.63-.16ZM86.4,8.64v0h0v0Zm.07-.1s0,0,0,0,0,0,0-.05,0,0,0,0S86.45,8.54,86.47,8.54Zm.29-2.85s0,0-.05,0S86.72,5.66,86.76,5.69Zm.08,1.5A1.17,1.17,0,0,1,87,6.9.47.47,0,0,0,87,6.62l-.05,0a.55.55,0,0,1-.09.29.67.67,0,0,0-.11.27A.07.07,0,0,1,86.84,7.19Zm0,.32s0,0,0,0,0,0,0,0Zm.07-2v0H87v0Zm.12.08.06,0s0,0,0,0S87,5.55,87,5.57Zm.22,5s0,0,0,0,0,0,0,0ZM87.31,6s0-.07,0-.07,0,0,0-.07-.05,0-.05,0,0,0,0,0a.12.12,0,0,1,0,.05.12.12,0,0,0,0,.05Zm.19-.47s0,0,0,0,0,0,0,0Zm.07-.19v0h0v0Zm.3,6.19-.07,0Zm.91-5.74v0h0v0Zm5.38-.73a1,1,0,0,0,.24.09.27.27,0,0,0,.24,0,.3.3,0,0,0-.25-.07s0,0,0,0,0,0,0,0a2,2,0,0,0-.52-.09l-.59,0A6.4,6.4,0,0,0,92,5,10,10,0,0,1,90.67,5l-.35.08a.57.57,0,0,1-.3,0,4.11,4.11,0,0,1-.58.13,3.84,3.84,0,0,0-.62.14.13.13,0,0,1,0,.08.14.14,0,0,0,0,.08q.81-.2,1.6-.34a13.22,13.22,0,0,1,1.74-.17L92.54,5A2.62,2.62,0,0,1,93,5a.16.16,0,0,1,.12,0,.17.17,0,0,1,.12,0,0,0,0,0,0,0,0s0,0,0,0a1.88,1.88,0,0,0,.42.05Zm-5.33.69a.45.45,0,0,1,.17,0,.12.12,0,0,0,.12-.07h0a.16.16,0,0,1-.14,0A.11.11,0,0,0,88.83,5.77Zm5.33-1.08a1.18,1.18,0,0,1,.27.09l.24.13a1,1,0,0,0-.73-.3s.05.06.09,0,.07,0,.09,0l-.35-.05a1.68,1.68,0,0,1-.31-.05c0-.06.1-.06.19,0a1,1,0,0,0,.24.08s0,0,0,0,0,0,0,0l-.28-.07a.6.6,0,0,0-.28,0,1.26,1.26,0,0,0-.62-.08,2.82,2.82,0,0,1-.62,0,.07.07,0,0,1,0,.05,2.18,2.18,0,0,0-.6,0,2.41,2.41,0,0,1-.55,0,.11.11,0,0,1-.07.05.11.11,0,0,0-.07.05l0,0h-.07l0,0a0,0,0,0,1,.05.05.09.09,0,0,0-.08,0,.06.06,0,0,1-.08,0s0,0,0,0,0,0,0,0,0,0,0,0,0,0,0,0a.1.1,0,0,1-.15,0,5.36,5.36,0,0,1-.71.13,5.5,5.5,0,0,0-.71.13.09.09,0,0,1,0,.08A.3.3,0,0,0,89,5s0,0,0,0h0L89,5.13l-.06.08H89s0,0,.05,0h0v0h.07v0h.05v0h.05v0h0v0h.05v0h0v0h.07v0h.07v0h.12v0h.07v0h0s0,0,0,0,0,0,0,0A2,2,0,0,0,90.09,5a1.45,1.45,0,0,1,.4-.05l.26-.05a.76.76,0,0,1,.23,0,1,1,0,0,1,.3-.06,1.17,1.17,0,0,1,.31,0,.94.94,0,0,1,.26-.07l.3,0,.31,0,.29,0h.36l.44,0,.45,0,.4,0-.13-.06A.35.35,0,0,1,94.16,4.69Zm-5,.2.09,0h.11l-.11.05C89.16,5,89.13,4.94,89.12,4.9Zm.05,5.94h-.05v0h.05Zm0,.05a0,0,0,0,1,0,0h0v0Zm0-5.2q.56-.12,1.18-.21l1.13-.18-1,.11a6.69,6.69,0,0,0-.88.16l-.26,0A.21.21,0,0,0,89.15,5.69ZM90.08,10,90,10a.11.11,0,0,0-.07.08l-.09,0h-.11a.39.39,0,0,1,.17-.07Zm0-5.2s0,0,0,0,0,0,0,.06a.07.07,0,0,1-.07,0,.12.12,0,0,0-.1,0s0-.07.05-.07a.09.09,0,0,0-.09,0l-.09,0a.07.07,0,0,1,.09-.06Zm-.24,5.33h0v0h0Zm.3-5.33s0-.05.05-.05.07,0,.07.05h-.12Zm.24-.05s0,0,0,0a.07.07,0,0,0-.07,0s0,0,0,0Zm0,.12s0,0,0,0,0,0,0,0l0,0A0,0,0,0,0,90.35,4.83Zm.59-.39s0,0,0,0v0Zm.34.27s.05-.05.12-.05a.1.1,0,0,1,0,.07Zm.12-.12s0,0-.05,0S91.36,4.59,91.39,4.59Zm.29.69.1,0s.07,0,.08,0l-.11,0S91.7,5.25,91.68,5.28Zm.22,0a2,2,0,0,0,.35,0,1.38,1.38,0,0,1,.35,0,1,1,0,0,0-.37,0A1.06,1.06,0,0,0,91.9,5.28ZM92,4.64s0,0,0,0,0,0,0,0Zm0-.1-.07,0S92,4.54,92,4.54Zm.29,0a.24.24,0,0,1,.18,0,.24.24,0,0,0,.18,0s0,0-.07,0h-.25s-.05,0-.05,0S92.29,4.5,92.31,4.51Zm.4,0s0,0,.06,0,.06,0,.06,0ZM93,5.2s0,0,0,0,0,0,0,0l0,0S93,5.18,93,5.2Zm.19,0H93.1v0h0v0h0Zm-.05-.64s0,0,.05,0l.12,0a.07.07,0,0,1-.08,0A.09.09,0,0,0,93.12,4.54Zm.15.67a.07.07,0,0,1,.07,0,0,0,0,0,0,.05,0,.09.09,0,0,1-.08,0S93.27,5.19,93.27,5.22Zm.15-.66h-.05v0h.05Zm.24-.14v0h0v0Zm.62.14v0h0v0Z"/><path class="cls-1" d="M97.32,12.54a.14.14,0,0,1-.13.11.14.14,0,0,0-.13.11.12.12,0,0,0,.1,0,.12.12,0,0,1,.1,0,.86.86,0,0,1-.14.17A.75.75,0,0,0,97,13c-.06,0-.09,0-.11,0l-.06.08a.13.13,0,0,1,0,.12,1.37,1.37,0,0,1-.21.17,1.25,1.25,0,0,1-.26.13v.07s0,0,0,0,0,0,0,0a.82.82,0,0,1-.16.15l-.19.14a.73.73,0,0,0-.15.17.41.41,0,0,0-.06.23l-.27.21a1.34,1.34,0,0,0-.25.23c-.07,0-.11,0-.13.06s-.05.09-.11.08v0s0,0,0,0A.1.1,0,0,1,95,15l-.16.08-.23.08a.89.89,0,0,0-.19.11.24.24,0,0,1-.21,0s0,0,0,.08l-.57.19a2.74,2.74,0,0,1-.64.1,1.41,1.41,0,0,0-.37,0l-.34,0a2.46,2.46,0,0,1-.77-.26,4.12,4.12,0,0,1-.6-.41l-.33-.46a1.6,1.6,0,0,1-.24-.52,1.16,1.16,0,0,1-.13-.45,2.9,2.9,0,0,1,0-.58s0,0,0,0,0,0,0,0a3,3,0,0,1,.29-.79,3.44,3.44,0,0,1,.43-.62,6.43,6.43,0,0,1,.51-.52l.54-.5a3.25,3.25,0,0,1,.66-.4,2.55,2.55,0,0,0,.64-.41l.35-.11a1.31,1.31,0,0,1,.4,0s0,0,0,0,0,0,0,0a2.15,2.15,0,0,1,.88.05,1.13,1.13,0,0,1,.25.27,1,1,0,0,1,.19.35.46.46,0,0,1,0,.28.73.73,0,0,1-.17.24,3,3,0,0,0-.24.27,2.05,2.05,0,0,0-.35.52,1.72,1.72,0,0,1-.43.31,1.54,1.54,0,0,0-.43.33s0,0,0,0a.07.07,0,0,1,0,0l-.11,0a.17.17,0,0,0-.09,0s0,0,0,0,0,0,0,0l-.22.08a.9.9,0,0,1-.24.06c0,.06,0,.08,0,.08l-.16,0a.15.15,0,0,1-.08,0l-.1,0a.07.07,0,0,0,0,.05l-.33.06a2.2,2.2,0,0,1-.39,0,2.08,2.08,0,0,1-.38-.05.82.82,0,0,1-.3-.13.11.11,0,0,0-.08.14,2.7,2.7,0,0,0-.23.68,2.34,2.34,0,0,0,0,.77.36.36,0,0,0,.3.3.91.91,0,0,0,.46,0,.43.43,0,0,0,.24.07l.28,0a3.94,3.94,0,0,0,1-.22,6.37,6.37,0,0,0,.87-.4,9.29,9.29,0,0,0,.79-.49q.38-.26.78-.5a.14.14,0,0,0-.05.08L96,13l.38-.22c0-.08,0-.12.05-.12s0,0,0,0,0,0,0,0a1.88,1.88,0,0,0,.4-.19l.4-.23a8,8,0,0,1-.83.51q-.42.23-.84.5s0,0,0,0,0,0,0,0a.11.11,0,0,0-.13,0,.39.39,0,0,0-.11.1l0,0a.59.59,0,0,1-.22.19.59.59,0,0,0-.22.19.4.4,0,0,1,.2-.11.19.19,0,0,0,.15-.13,1.09,1.09,0,0,0,.32-.18,1.69,1.69,0,0,1,.3-.19s0,.05,0,.09-.07,0-.08,0,0,0,0,0,0,0,0,0a.79.79,0,0,0-.23.13l-.18.16s.06,0,.1-.07,0,0,0,0,0,0,0,0,.05,0,.05,0v-.08s0,0,0,0,0,0,0,0a0,0,0,0,1,0,0s0,0,0,0,0,0,0,0l.07,0,.54-.31q.27-.16.52-.35l0,0a.75.75,0,0,0,.31-.14A1.92,1.92,0,0,1,97.32,12.54Zm-7.1.3v0h0v0Zm.59-.94a.15.15,0,0,0,.14-.08l.08-.16.1,0a.11.11,0,0,0,.05-.11.53.53,0,0,0,.27-.27.07.07,0,0,1,0,.05c.06,0,.1,0,.12-.12s0,0,0,0,0,0,0,0,0-.09.07-.09a.08.08,0,0,0,.07-.06h0s0,0,0,0,0,0,0,0,0,0,0,0,0,.05,0,.05a.22.22,0,0,1,.17-.1.58.58,0,0,1,.23-.21l.3-.13.16-.13a.58.58,0,0,1,.19-.09.09.09,0,0,1,0-.07v0s0,0,0,0l0,0a1.12,1.12,0,0,1-.24.15l-.23.1s0,0,0,0,0,0,0,0a.6.6,0,0,0-.36.19.94.94,0,0,1-.35.24.09.09,0,0,0,0,.08l0,.06c-.06,0-.07,0-.05-.05l-.13.1c-.06,0-.08.07-.07.1l-.06.06a.07.07,0,0,1-.08,0l-.12.17a.27.27,0,0,1-.15.12.28.28,0,0,1,0,.08s0,0-.08,0a.2.2,0,0,1,0,.06A.18.18,0,0,0,90.8,11.9Zm.27,0a.07.07,0,0,1,0,0,0,0,0,0,0,0,0l-.05.05A0,0,0,0,0,91.07,11.91Zm3-1.43a.6.6,0,0,0-.48.12,1.59,1.59,0,0,1-.41.25,3.08,3.08,0,0,1-.4.28,1.6,1.6,0,0,0-.39.31s.05,0,.06,0,0,0,0,0a.11.11,0,0,0-.05.05s0,0-.08,0a.27.27,0,0,1-.09.13l-.13.08a.27.27,0,0,1-.09.13.42.42,0,0,0-.11.13,1.48,1.48,0,0,0,.7-.13l.62-.29a.39.39,0,0,1,.25-.17.2.2,0,0,1,.13-.1.15.15,0,0,0,.11-.1s0,0,0,0,0,0,0,0,0,0,0,0,.05,0,.05,0,0,0,.07,0a.07.07,0,0,1,0-.05s0,0,0,0,0,0,0,0h0v-.05s.05,0,.05,0,0,0,.05,0a.11.11,0,0,1,0-.1.05.05,0,0,1,.08,0,.21.21,0,0,1,0-.13l.08-.09v.05a.12.12,0,0,0,.14-.14s0,0,0,0,0,0,0,0,0-.06,0-.07a.07.07,0,0,1,.07,0,0,0,0,0,0,0-.05s0,0,0,0,0,0,.05,0l.05-.07-.05-.07a.08.08,0,0,0,.08,0s0,0,0-.05l-.29.07A.58.58,0,0,0,94,10.48Zm-2.13.13s0,0,0,0,0,0,0,0Zm.88,2.11s0,0,0,0Zm.15-2.61a.78.78,0,0,0-.1.22.54.54,0,0,0,.13-.11.23.23,0,0,1,.14-.08s0,0,0,0,0,0,0,0a0,0,0,0,1,0,.05s0,0,0-.05l-.05,0S93,10.12,92.95,10.11ZM93,14.93h.07a0,0,0,0,0,0,0s0,0,0,0,0,0,0,0S93,14.91,93,14.93Zm1.4-3.83a.11.11,0,0,0,.08-.08.16.16,0,0,1,.07-.09h-.05l-.07,0a.14.14,0,0,1-.05.08s0,0,.05,0,0,0,0,0a1.89,1.89,0,0,1-.51.39,2.83,2.83,0,0,0-.52.35.17.17,0,0,0,.17,0,.34.34,0,0,1,.15-.09.08.08,0,0,1,0,0,.08.08,0,0,0,0,0,1.89,1.89,0,0,0,.46-.22A.73.73,0,0,0,94.43,11.1Zm-.73.1s0,0,0,0,0,0,0,0,0,0,.05,0S93.73,11.22,93.71,11.21Zm0,3.54h-.07s0,0,.07,0Zm.1-3.61s0,0,0,0h0A0,0,0,0,0,93.84,11.14Zm0,3.49.12,0s.06-.05,0-.08l-.08.05A.17.17,0,0,0,93.87,14.63Zm0-.34h0v0h0ZM94,11v0h0v0Zm.08,3.21h0a0,0,0,0,0,0,0h0Zm1,0a7.58,7.58,0,0,1,.9-.65,4.67,4.67,0,0,0,.87-.68l-1,.63-1,.65h-.08s0,.06-.05.05a.07.07,0,0,1,0,0,.07.07,0,0,0,0,0l-.23.09a1.07,1.07,0,0,0-.21.11s0,0,0,0,0,0,0,0a1.48,1.48,0,0,0,.45-.13ZM94.4,14l0,0s0,0,0,0,0,0,0,0S94.41,14,94.4,14Zm.3-.19-.08.06-.08.06.11-.06S94.7,13.86,94.7,13.84Zm0-3.27s0,0-.07,0,0,0,0,0h.05a.1.1,0,0,0,0,.07s.07,0,.1-.08a.31.31,0,0,1,.12-.11s-.06-.08,0-.12l-.13.08A.09.09,0,0,0,94.73,10.56Zm-.05.08a0,0,0,0,0,0,0Zm.37,2.9a.25.25,0,0,1-.15.15.26.26,0,0,0-.15.14.71.71,0,0,1,.19-.14.58.58,0,0,0,.19-.15h0s0,0-.05,0S95.08,13.56,95.06,13.55Zm0,.25h0v0h0Zm.17-.32s-.07,0-.07.05S95.22,13.52,95.24,13.48Zm.35-.24a.7.7,0,0,0-.35.22.44.44,0,0,0,.19-.11A.49.49,0,0,1,95.59,13.25Zm.15-.14h0Zm.15-.1-.08.05-.08.05Zm1-.13a.14.14,0,0,0,.12,0l.07-.08Z"/><path class="cls-1" d="M103.49,12.54a.14.14,0,0,1-.13.11.14.14,0,0,0-.13.11.12.12,0,0,0,.1,0,.12.12,0,0,1,.1,0,.86.86,0,0,1-.14.17.75.75,0,0,0-.14.19c-.06,0-.09,0-.11,0l-.06.08a.13.13,0,0,1,0,.12,1.37,1.37,0,0,1-.21.17,1.25,1.25,0,0,1-.26.13v.07s0,0,0,0,0,0,0,0a.82.82,0,0,1-.16.15l-.19.14a.73.73,0,0,0-.15.17.41.41,0,0,0-.06.23l-.27.21a1.34,1.34,0,0,0-.25.23c-.07,0-.11,0-.13.06s-.05.09-.11.08v0s0,0,0,0a.1.1,0,0,1,0,.07L101,15l-.23.08a.89.89,0,0,0-.19.11.24.24,0,0,1-.21,0s0,0,0,.08l-.57.19a2.74,2.74,0,0,1-.64.1,1.41,1.41,0,0,0-.37,0l-.34,0a2.46,2.46,0,0,1-.77-.26,4.12,4.12,0,0,1-.6-.41l-.33-.46a1.6,1.6,0,0,1-.24-.52,1.16,1.16,0,0,1-.13-.45,2.9,2.9,0,0,1,0-.58s0,0,0,0,0,0,0,0a3,3,0,0,1,.29-.79,3.44,3.44,0,0,1,.43-.62,6.43,6.43,0,0,1,.51-.52l.54-.5a3.25,3.25,0,0,1,.66-.4,2.55,2.55,0,0,0,.64-.41l.35-.11a1.31,1.31,0,0,1,.4,0s0,0,0,0,0,0,0,0a2.15,2.15,0,0,1,.88.05,1.13,1.13,0,0,1,.25.27,1,1,0,0,1,.19.35.46.46,0,0,1,0,.28.73.73,0,0,1-.17.24,3,3,0,0,0-.24.27,2.05,2.05,0,0,0-.35.52,1.72,1.72,0,0,1-.43.31,1.54,1.54,0,0,0-.43.33s0,0,0,0a.07.07,0,0,1,0,0l-.11,0a.17.17,0,0,0-.09,0s0,0,0,0,0,0,0,0l-.22.08a.9.9,0,0,1-.24.06c0,.06,0,.08,0,.08l-.16,0a.15.15,0,0,1-.08,0l-.1,0a.07.07,0,0,0,0,.05l-.33.06a2.2,2.2,0,0,1-.39,0,2.08,2.08,0,0,1-.38-.05.82.82,0,0,1-.3-.13.11.11,0,0,0-.08.14,2.7,2.7,0,0,0-.23.68,2.34,2.34,0,0,0,0,.77.36.36,0,0,0,.3.3.91.91,0,0,0,.46,0,.43.43,0,0,0,.24.07l.28,0a3.94,3.94,0,0,0,1-.22,6.37,6.37,0,0,0,.87-.4,9.29,9.29,0,0,0,.79-.49q.38-.26.78-.5a.14.14,0,0,0-.05.08l.38-.22.38-.22c0-.08,0-.12.05-.12s0,0,0,0,0,0,0,0a1.88,1.88,0,0,0,.4-.19l.4-.23a8,8,0,0,1-.83.51q-.42.23-.84.5s0,0,0,0,0,0,0,0a.11.11,0,0,0-.13,0,.39.39,0,0,0-.11.1l0,0a.59.59,0,0,1-.22.19.59.59,0,0,0-.22.19.4.4,0,0,1,.2-.11.19.19,0,0,0,.15-.13,1.09,1.09,0,0,0,.32-.18,1.69,1.69,0,0,1,.3-.19s0,.05,0,.09-.07,0-.08,0,0,0,0,0,0,0,0,0a.79.79,0,0,0-.23.13l-.18.16s.06,0,.1-.07,0,0,0,0,0,0,0,0,.05,0,.05,0v-.08s0,0,0,0,0,0,0,0a0,0,0,0,1,0,0s0,0,0,0,0,0,0,0l.07,0,.54-.31q.27-.16.52-.35l0,0a.75.75,0,0,0,.31-.14A1.92,1.92,0,0,1,103.49,12.54Zm-7.1.3v0h0v0ZM97,11.9a.15.15,0,0,0,.14-.08l.08-.16.1,0a.11.11,0,0,0,.05-.11.53.53,0,0,0,.27-.27.07.07,0,0,1,0,.05c.06,0,.1,0,.12-.12s0,0,0,0,0,0,0,0,0-.09.07-.09a.08.08,0,0,0,.07-.06h0s0,0,0,0,0,0,0,0,0,0,0,0,0,.05,0,.05a.22.22,0,0,1,.17-.1.58.58,0,0,1,.23-.21l.3-.13.16-.13a.58.58,0,0,1,.19-.09.09.09,0,0,1,0-.07v0s0,0,0,0l0,0a1.12,1.12,0,0,1-.24.15l-.23.1s0,0,0,0,0,0,0,0a.6.6,0,0,0-.36.19.94.94,0,0,1-.35.24.09.09,0,0,0,0,.08l0,.06c-.06,0-.07,0-.05-.05l-.13.1c-.06,0-.08.07-.07.1l-.06.06a.07.07,0,0,1-.08,0l-.12.17a.27.27,0,0,1-.15.12.28.28,0,0,1,0,.08s0,0-.08,0a.2.2,0,0,1,0,.06A.18.18,0,0,0,97,11.9Zm.27,0a.07.07,0,0,1,0,0,0,0,0,0,0,0,0l-.05.05A0,0,0,0,0,97.25,11.91Zm3-1.43a.6.6,0,0,0-.48.12,1.59,1.59,0,0,1-.41.25,3.08,3.08,0,0,1-.4.28,1.6,1.6,0,0,0-.39.31s.05,0,.06,0,0,0,0,0a.11.11,0,0,0-.05.05s0,0-.08,0a.27.27,0,0,1-.09.13l-.13.08a.27.27,0,0,1-.09.13.42.42,0,0,0-.11.13,1.48,1.48,0,0,0,.7-.13l.62-.29a.39.39,0,0,1,.25-.17.2.2,0,0,1,.13-.1.15.15,0,0,0,.11-.1s0,0,0,0,0,0,0,0,0,0,0,0,.05,0,.05,0,0,0,.07,0a.07.07,0,0,1,0-.05s0,0,0,0,0,0,0,0h0v-.05s.05,0,.05,0,0,0,.05,0a.11.11,0,0,1,0-.1.05.05,0,0,1,.08,0,.21.21,0,0,1,0-.13l.08-.09v.05a.12.12,0,0,0,.14-.14s0,0,0,0,0,0,0,0,0-.06,0-.07a.07.07,0,0,1,.07,0,0,0,0,0,0,0-.05s0,0,0,0,0,0,.05,0l.05-.07-.05-.07a.08.08,0,0,0,.08,0s0,0,0-.05l-.29.07A.58.58,0,0,0,100.22,10.48Zm-2.13.13s0,0,0,0,0,0,0,0ZM99,12.72s0,0,0,0Zm.15-2.61a.78.78,0,0,0-.1.22.54.54,0,0,0,.13-.11.23.23,0,0,1,.14-.08s0,0,0,0,0,0,0,0a0,0,0,0,1,0,.05s0,0,0-.05l-.05,0S99.17,10.12,99.12,10.11Zm.08,4.82h.07a0,0,0,0,0,0,0s0,0,0,0,0,0,0,0S99.2,14.91,99.2,14.93Zm1.4-3.83a.11.11,0,0,0,.08-.08.16.16,0,0,1,.07-.09h-.05l-.07,0a.14.14,0,0,1-.05.08s0,0,.05,0,0,0,0,0a1.89,1.89,0,0,1-.51.39,2.83,2.83,0,0,0-.52.35.17.17,0,0,0,.17,0,.34.34,0,0,1,.15-.09.08.08,0,0,1,0,0,.08.08,0,0,0,0,0,1.89,1.89,0,0,0,.46-.22A.73.73,0,0,0,100.61,11.1Zm-.73.1s0,0,0,0,0,0,0,0,0,0,.05,0S99.9,11.22,99.88,11.21Zm0,3.54h-.07s0,0,.07,0Zm.1-3.61s0,0,0,0h0A0,0,0,0,0,100,11.14Zm0,3.49.12,0s.06-.05,0-.08l-.08.05A.17.17,0,0,0,100,14.63Zm0-.34h0v0h0Zm.12-3.31v0h0v0Zm.08,3.21h0a0,0,0,0,0,0,0h0Zm1,0a7.58,7.58,0,0,1,.9-.65,4.67,4.67,0,0,0,.87-.68l-1,.63-1,.65h-.08s0,.06-.05.05a.07.07,0,0,1,0,0,.07.07,0,0,0,0,0l-.23.09a1.07,1.07,0,0,0-.21.11s0,0,0,0,0,0,0,0a1.48,1.48,0,0,0,.45-.13Zm-.69-.2,0,0s0,0,0,0,0,0,0,0S100.58,14,100.57,14Zm.3-.19-.08.06-.08.06.11-.06S100.87,13.86,100.87,13.84Zm0-3.27s0,0-.07,0,0,0,0,0h.05a.1.1,0,0,0,0,.07s.07,0,.1-.08a.31.31,0,0,1,.12-.11s-.06-.08,0-.12l-.13.08A.09.09,0,0,0,100.91,10.56Zm-.05.08a0,0,0,0,0,0,0Zm.37,2.9a.25.25,0,0,1-.15.15.26.26,0,0,0-.15.14.71.71,0,0,1,.19-.14.58.58,0,0,0,.19-.15h0s0,0-.05,0S101.25,13.56,101.23,13.55Zm0,.25h0v0h0Zm.17-.32s-.07,0-.07.05S101.39,13.52,101.41,13.48Zm.35-.24a.7.7,0,0,0-.35.22.44.44,0,0,0,.19-.11A.49.49,0,0,1,101.77,13.25Zm.15-.14h0Zm.15-.1-.08.05-.08.05Zm1-.13a.14.14,0,0,0,.12,0l.07-.08Z"/><path class="cls-1" d="M102.54,14.12s0,0,0,0,0,0,0,0a.07.07,0,0,1,0-.07s0,0-.05,0a2.53,2.53,0,0,0,.05-.5,3.33,3.33,0,0,1,0-.48s0,0,.05,0,0,0,0-.05,0,0,0,0,0,0,0,0,0,0,0,0h0a.11.11,0,0,1,.05-.1s0,0,0,0,0,0,0,0a.1.1,0,0,1,0-.06s0,0,0-.08.14-.13.08-.29l0,0,0,0a0,0,0,0,1,0,0s0,0,0,0,0,0,0,0,0,0,0,0,0,0,0,0a.05.05,0,0,1,0-.05s0,0,0-.07.05,0,.05-.05,0,0,0,0,0,0,0,.06,0,0,0,0,0,0,0,0a.1.1,0,0,1,0,.07s.07,0,.08-.07a.13.13,0,0,1,.06-.07s0,0,0,0,0,0,0,0l0,0v0l0,0s-.06-.07,0-.14a.18.18,0,0,1,.11-.13q-.05-.13,0-.19a.16.16,0,0,0,0-.18.15.15,0,0,0,0,.08.12.12,0,0,1-.06.08.12.12,0,0,1,0,.13.14.14,0,0,0,0,.15.2.2,0,0,0-.08.19s-.08,0-.1-.07h.07s0,0,0,0,0,0,0,0L103,12s0-.07,0-.08,0,0,0,0,0,0,0,0a.18.18,0,0,1,0-.18.51.51,0,0,0,0-.21.14.14,0,0,0,.05-.14.05.05,0,0,0,0,0s0,0,0,0a.3.3,0,0,0,0-.09s0-.05.08-.08,0,0-.05,0a.67.67,0,0,0,.06-.26.32.32,0,0,1,.11-.24.11.11,0,0,1,0-.12.17.17,0,0,0,0-.12h0s0,0,0,0,0,0,0,0,0,0,0,0,0,0,0-.06a.1.1,0,0,0,.07,0s0-.08,0-.1a.22.22,0,0,0,.05-.08s0,0,0,0a.05.05,0,0,1,.06,0l-.05-.12s.07,0,.07-.05,0,0,0,0a1.18,1.18,0,0,0,0-.14.14.14,0,0,1,.06-.1s0,0,0,0l.05-.07.07,0s0,0,0,0,0,0,0,0a1.43,1.43,0,0,0,.05-.19.26.26,0,0,1,.1-.16h0v0s0,0,0,0,0,0,0,0,0,0,.1,0,0,0,0,0,0,0,0,0,0,0,0,0,0,0,0,0a.42.42,0,0,1,0-.18l.08-.14.08-.14a.3.3,0,0,0,0-.18.08.08,0,0,0,0-.05l0-.08a.44.44,0,0,1,0-.09.11.11,0,0,1,.08-.06s0-.06,0-.12a.3.3,0,0,1,.09-.12s0-.06,0-.07l-.06-.05s.06,0,.05-.06,0-.06.05-.06,0,0,0,.1l0-.05,0,0a.07.07,0,0,1,0-.09s0-.05,0-.11,0,0,.07-.05a0,0,0,0,0-.07,0,.1.1,0,0,0,0,.07s0-.07,0-.08l.11-.05h0s0,0,0,0a.11.11,0,0,0,.07-.1.16.16,0,0,1,.05-.12h0a.16.16,0,0,1,.08-.16l.18-.16a.12.12,0,0,1,0-.12s0-.06,0-.08a.13.13,0,0,0,.09-.08.29.29,0,0,1,.06-.1s0,0,0,0,0,0,0,0,0-.08.07,0l.12-.16a.23.23,0,0,0,0-.19.15.15,0,0,0,.06-.06s0,0,0,0,0,0,.05,0,0-.08,0-.09,0,0,0-.06,0,0,0,0,0,0,0,0,0-.05,0-.09a.3.3,0,0,1,.11-.09s0,0,0,0,0,0,0,0a.39.39,0,0,0,.1-.12c0,.06,0,.08.07.08a1.67,1.67,0,0,1,.19-.25.58.58,0,0,0,.14-.29s.06,0,.05-.07a1.23,1.23,0,0,0,.23-.26l.18-.28s0,0-.05,0a.05.05,0,0,1-.05,0,1.35,1.35,0,0,0,.19-.3.26.26,0,0,1,.3-.14c0-.06,0-.09,0-.11l.14,0H107a.14.14,0,0,0,.12,0,.55.55,0,0,1,.49,0A2,2,0,0,0,108,4a1,1,0,0,1,.25.39,1.12,1.12,0,0,1,0,.35l-.07.28a.86.86,0,0,0,0,.29q-.19.46-.35.91a5.65,5.65,0,0,0-.24,1,.13.13,0,0,0-.09.14.24.24,0,0,1-.08.19.22.22,0,0,1-.07.24.23.23,0,0,0-.08.22,2.73,2.73,0,0,0-.14.4.76.76,0,0,1-.23.36.84.84,0,0,1-.19.42,1.47,1.47,0,0,0-.24.4,1.44,1.44,0,0,1-.35.62,2.93,2.93,0,0,0-.43.61,1,1,0,0,1-.32.49,1.57,1.57,0,0,0-.37.46s-.06,0-.06.06,0,0-.06,0,0,0,0,0,0,0,0,0,0,0,0,0,0,0,0,0,0,0,0,0,0,0,0,.05a.08.08,0,0,0-.08,0,0,0,0,0,1,.05.05h0s0,0,0,0,0,0-.07.07-.11,0-.13.06a.71.71,0,0,1-.08.18.79.79,0,0,1-.24.21l-.25.18a.51.51,0,0,0-.08.11.1.1,0,0,1-.12,0s0,0,0,.05,0,0,0,0,0,0,0,0a0,0,0,0,0,0,0,.2.2,0,0,0-.07.1.18.18,0,0,0,0,.17,0,0,0,0,0,0,0s0,0,0,0a6.3,6.3,0,0,1,0,.66c0,.21,0,.43,0,.65s0,.44,0,.67a3.73,3.73,0,0,0,.1.69,2.32,2.32,0,0,1,.1.29,2,2,0,0,0,.15.37.18.18,0,0,0,.16-.06s.05,0,.08,0a0,0,0,0,0,0,0l0,0a.11.11,0,0,1,.09-.07.08.08,0,0,0,.08-.08.07.07,0,0,0,.1,0s.06-.05.1,0,0,0,0,0,0,0,0,0a.33.33,0,0,0,.11-.08.34.34,0,0,1,.11-.08s0,0,0,0a.82.82,0,0,1,.21-.23.81.81,0,0,0,.21-.23.46.46,0,0,0,.19-.27s0,0,0,0,0,0,0-.07l0,0s0,0,0,0a.12.12,0,0,1,.07-.12.1.1,0,0,0,.05-.12s.07,0,.07,0,0-.06.08-.05a0,0,0,0,0-.05,0,0,0,0,0,1-.05,0s0,0,.05,0,.05,0,.08,0a.15.15,0,0,1,0-.07.15.15,0,0,0,0-.07s.06,0,0-.08.09,0,.1-.07a.16.16,0,0,0,0-.1,2.74,2.74,0,0,0,.24-.36c.07-.13.14-.26.19-.38a.57.57,0,0,1,.14-.15.18.18,0,0,0,.05-.2.26.26,0,0,0,.14-.14,2,2,0,0,0,.08-.21.16.16,0,0,0,.07-.08A.43.43,0,0,1,107,13s0,0,0,0,0,0,0,.05,0,0,0,.05,0,0,0,0,0,0,0,0v0a0,0,0,0,1,0,0s0,0,0,0,0,0,0,0,0,0,0,0,0,0,0,0,0,0,0,0,0,0,0,0a.07.07,0,0,1,0,.05s0,0,0,0,0,0,0,.1a.53.53,0,0,0-.13.19h-.05s0,0,0-.05l0-.05s0,0,0,0,0,0,0,0l0-.07a.11.11,0,0,0,0-.08,1.5,1.5,0,0,1-.11.19.67.67,0,0,0-.09.2l.1-.14a.57.57,0,0,1-.25.46s0,0,0,0,0,0,0,0a.1.1,0,0,0-.07.07,0,0,0,0,0,.07,0,.67.67,0,0,1-.12.24.39.39,0,0,0-.08.24.2.2,0,0,0-.13.15.27.27,0,0,1-.1.17s0,0,0,0a.07.07,0,0,1-.05,0s0,0-.05.06,0,0,0,0a0,0,0,0,1,0,0,0,0,0,0,0,0,0l-.12.14a.28.28,0,0,0-.05.22h0s0,0,0,0,0,0,0,0a1.19,1.19,0,0,1-.22.33,1.81,1.81,0,0,0-.24.31s0,0,0,0,0,0,0,0a2.44,2.44,0,0,0,.48-.48,4.87,4.87,0,0,0,.38-.58l0,0q.29-.44.52-.89t.52-.89a2,2,0,0,1-.33.7,1.84,1.84,0,0,0-.31.72,2,2,0,0,1,.14-.24l.16-.23s0,0,0,0a0,0,0,0,0,0,0,.72.72,0,0,0,.19-.3.54.54,0,0,1,.22-.29s0,0,0,0,0,0,0,0a1.8,1.8,0,0,0,.25-.41,1.53,1.53,0,0,1,.27-.41,1.26,1.26,0,0,1-.08.34,1.3,1.3,0,0,1-.17.3.38.38,0,0,1,0,.12,1.25,1.25,0,0,0-.19.45.9.9,0,0,1-.22.43.17.17,0,0,1,0,.16s0,.1,0,.18-.21.37-.31.55a5.81,5.81,0,0,0-.3.55.49.49,0,0,0-.24.27.62.62,0,0,1-.21.29s0,0,0,.06,0,0,0,.06a1.31,1.31,0,0,0-.35.28,1.6,1.6,0,0,1-.4.31s0,0,0,.05l-.08,0s0,0,0,0a3,3,0,0,1-.62.17,1.94,1.94,0,0,1-.6,0,1.66,1.66,0,0,1-.53-.17,1.16,1.16,0,0,1-.41-.36l0,0s0,.07.05.1c-.1,0-.19-.07-.25-.22a1.93,1.93,0,0,1-.13-.37q-.14-.34-.2-.53a1.48,1.48,0,0,1-.07-.48s0,0,0,0,0,0,0,0,0,0,0,0,0,0,.05-.07a.78.78,0,0,1,0-.15.3.3,0,0,0-.05-.15.25.25,0,0,0,.05-.13c0-.06,0-.1-.05-.11a.11.11,0,0,1,0-.05s0,0,0-.05,0,0,0,0,0,0,0,0,0,0,0,0,0,0,0,0a.1.1,0,0,0,.07-.07l0,0,0,0,.05,0,0,0h0v0h0v0Zm0,.19a0,0,0,0,1,0,0,.07.07,0,0,1,0-.05h0A.05.05,0,0,1,102.54,14.31Zm.12.69a.5.5,0,0,1,0-.08s0-.05,0-.05a.11.11,0,0,0,0,.08A.08.08,0,0,0,102.66,15Zm0-.24a.15.15,0,0,0,0-.15.11.11,0,0,1,0-.13l0-.07v-.07a.52.52,0,0,0,0,.19A1.61,1.61,0,0,0,102.65,14.77Zm0,0c0,.06,0,.07.05.05a.07.07,0,0,0,0-.05Zm.07-.46a.38.38,0,0,1,0-.3.84.84,0,0,0,0-.35l-.08.33A.43.43,0,0,0,102.7,14.33Zm.1-1.28s0,0,0,0,0,0,0,0a0,0,0,0,0,0,0S102.82,13,102.8,13Zm0-.15-.05,0s0,0,0,.06,0,0,0,0a.1.1,0,0,1,0-.06A.06.06,0,0,0,102.83,12.89Zm-.05,2,0,0v0h0Zm.05-1a1.87,1.87,0,0,0,.08-.52h0a.58.58,0,0,1,0,.17.36.36,0,0,0,0,.2s0,0,0,0,0,0,0,0a.06.06,0,0,1,0,.05S102.81,13.95,102.83,14Zm0,.42a.6.6,0,0,0,.05-.15.23.23,0,0,0,0-.15c0,.06,0,.11,0,.15A1.18,1.18,0,0,0,102.8,14.39Zm.14-1.16A1.48,1.48,0,0,0,103,13c0-.07,0-.13.06-.2s0,0-.05,0a.3.3,0,0,1,0,.21A.19.19,0,0,0,102.93,13.23Zm.24-.86a1.36,1.36,0,0,0,.11-.35q0-.16,0-.35a.33.33,0,0,0-.08.18.64.64,0,0,1,0,.18s0,0,0,0,0,0,0,0a.47.47,0,0,0,0,.11c0,.05,0,.05-.07,0s0,0,0,0l0,0a.11.11,0,0,1,0,.11.16.16,0,0,1-.07.09.15.15,0,0,1,0-.07.15.15,0,0,0,0-.07.15.15,0,0,0,0,.07.15.15,0,0,1,0,.08s0,0,.05,0S103.15,12.38,103.17,12.37Zm0-.19,0,0a0,0,0,0,0,0,0Zm.07-.88s0,0,0,0,0,0,0,0l0,0v0Zm.15-1.18s0,0,0,0,0,0,0,0,0,0,0,0S103.37,10.12,103.39,10.13Zm0,1.47q0-.15.08-.31a.54.54,0,0,0,0-.3.87.87,0,0,0-.05.19,1.32,1.32,0,0,1-.05.21s0,0,0,0,0,0,0,0a.14.14,0,0,0,0,.1A.55.55,0,0,1,103.37,11.59Zm.1-.94s0,0-.05,0a.1.1,0,0,0,0,.08s0,0,0,0,0,0,0,0S103.46,10.66,103.47,10.65Zm0-.76s0,0,0,0v0S103.44,9.9,103.44,9.89Zm.07-.1h0s0,0,0,0Zm0,0a0,0,0,0,1,0,0S103.48,9.79,103.51,9.79Zm0-.05,0,0v0S103.54,9.73,103.54,9.74Zm0,.49s0,0,0,0,0,0,0,0A.05.05,0,0,1,103.56,10.23Zm.07-.24,0,.07a.05.05,0,0,0,0,.07.1.1,0,0,1,.05-.08.05.05,0,0,0,0-.05Zm0,.64s0,0,0,0,0,0,0,0Zm.05-.71a0,0,0,0,1,0,0,0,0,0,0,0,0,0s0,0,0,0a0,0,0,0,0,0,0A.07.07,0,0,0,103.64,9.92Zm0,.64,0-.05s0,0,0-.07,0,0-.05,0A.07.07,0,0,0,103.64,10.56Zm0-1.23a0,0,0,0,1,0,0h0v0Zm0,.44c0,.06,0,.08,0,.08a.34.34,0,0,1,0-.06S103.7,9.76,103.68,9.77Zm0,.66s0,0,0,0l-.05,0,0,0S103.71,10.43,103.72,10.43Zm.06-.74a.66.66,0,0,1,.05-.22,1.79,1.79,0,0,1,.09-.3,1.11,1.11,0,0,0,.08-.26s0,0,0,.06,0,0-.05.06l0,.08a.64.64,0,0,0-.12.17.18.18,0,0,0,0,.19.13.13,0,0,0-.08.1.17.17,0,0,1,0,.1s0,0,0,0S103.75,9.71,103.78,9.69Zm.07-.49s0,0,0,.05S103.85,9.23,103.84,9.2Zm0,.76a1.7,1.7,0,0,0,.14-.26A1.08,1.08,0,0,0,104,9.4l-.05,0a.47.47,0,0,1-.05.27A1.33,1.33,0,0,0,103.81,10Zm.05-1s0,0,0,0,0,0,0,0,0,0,0,0S103.86,9,103.86,9Zm.07-.14v.05s0,0,0,0S104,8.85,103.93,8.86Zm.08,0s0-.06,0-.07l0,0S104,8.86,104,8.86Zm0-.07h0l0,0h0Zm0-.05,0,0,0,0S104.07,8.74,104.08,8.74Zm0-.07s0,0,0,0a0,0,0,0,0,0,0s0,0,0,0S104.09,8.68,104.11,8.68Zm0-.08a.07.07,0,0,0,0-.05S104.09,8.59,104.13,8.59Zm0-.08s-.05,0-.05,0S104.18,8.53,104.16,8.51Zm2.13-.17v0h0a.31.31,0,0,1,0,.17.45.45,0,0,0-.06.15.32.32,0,0,0,.08-.12.62.62,0,0,1,.06-.12s0,0,0,0,0,0,0,0a0,0,0,0,0,0,0,0,0,0,0,1,0,0,.79.79,0,0,1-.16.31.64.64,0,0,0-.14.31c-.06,0-.08.06-.08.1s0,.08-.08.1a.18.18,0,0,1-.12.19,7,7,0,0,1-.75,1.19l-.87,1.1a.2.2,0,0,0,.12-.12.15.15,0,0,1,.12-.1.08.08,0,0,0,0,0l0,.06a9.31,9.31,0,0,0,1.51-2,21.84,21.84,0,0,0,1.09-2.18q.17-.52.35-1l.37-1a2,2,0,0,1,.13-.61,1.51,1.51,0,0,0,.09-.62l-.13.05a.21.21,0,0,1,0,.08s0,0-.05,0l0,0s0,0,0,0l0-.07s0,0,0,0a.09.09,0,0,0,0,.07.07.07,0,0,1,0,.07l0,0a0,0,0,0,0,0,0s0,0,0,0a.21.21,0,0,1,0,.09.1.1,0,0,0,0,.11h0s0,0,0,0,0,0,0,0,0,0,0,0a0,0,0,0,1,0,0,.19.19,0,0,0,0,.08h-.05a.08.08,0,0,1,0,.08.38.38,0,0,0,0,.08s0,0,0,0,0,0,0,0a.08.08,0,0,1,0,.06s0,0,0,0,0,0,0,0,0,0,0,0,0,0,0,0,0,0,0,0a.23.23,0,0,0-.07.17.26.26,0,0,1-.08.19.14.14,0,0,1,0-.08.14.14,0,0,0,0-.08.14.14,0,0,0-.07.14c0,.07,0,.1-.07.09a.11.11,0,0,1,0,.12s0,0,0,0,0,0,0,0,0,0,0,0l0,0s0,0,0,0,0,0,0,0a.06.06,0,0,0,0,.06s0,0,0,0,0,0,0,0,0,0,0,0a.18.18,0,0,0-.05.17,0,0,0,0,0,0,0s0,0,0,0-.06,0,0,0,0,0-.05,0a.08.08,0,0,1,0,.11s0,.06,0,.09-.07,0-.07.05,0,0-.05.07,0,0,0,0,0,0,0,0a.13.13,0,0,0-.08.11,1.25,1.25,0,0,0,0,.14s0,0,0,0a1,1,0,0,1,0,.21.2.2,0,0,1-.09.14c0,.07,0,.11-.07.12a0,0,0,0,0,0,0,.12.12,0,0,0,0,.08.1.1,0,0,1-.05.08.37.37,0,0,1,0,.23,1,1,0,0,0-.08.21.13.13,0,0,0,.06-.07.15.15,0,0,1,0-.07.21.21,0,0,1,0,.11l-.06.09s0,0,0,0,0,0,0,0a.86.86,0,0,0-.11.18,2,2,0,0,0-.08.19.15.15,0,0,0,.06-.06l0-.06a.59.59,0,0,1,0,.19.22.22,0,0,1-.1.13V8.25h0V8.19h0v0a0,0,0,0,0,0,.06s0,0,0,0l0,.08v0Zm-2.09-.19s0,0,0,0,0,0,0,0,0,0,0,0S104.22,8.14,104.2,8.15Zm.07.05s0,0,0,.05V8.3l0-.05S104.29,8.23,104.27,8.2Zm.05-.54s0,0-.07,0v0Zm1.27-.25a.05.05,0,0,1,0,0,.13.13,0,0,0,0,.05.11.11,0,0,0-.08.12c0,.06,0,.08-.08.07a.68.68,0,0,0-.08.19.23.23,0,0,1-.08.14,8.73,8.73,0,0,1-.43,1.17,3.94,3.94,0,0,0-.33,1.17,0,0,0,0,0,0,0,0,0,0,0,1,0,0l-.17.59s0,.05,0,.05,0,0,0,0a0,0,0,0,1,0,0,.08.08,0,0,1,0,.08,3.75,3.75,0,0,0,.39-.41,2.3,2.3,0,0,0,.29-.46H105a.93.93,0,0,1,.19-.32.93.93,0,0,0,.19-.32,0,0,0,0,1,0,0s0,0,0,0a.1.1,0,0,1,0-.07.51.51,0,0,0,.11-.17,1.49,1.49,0,0,1,.09-.19.05.05,0,0,1,0,0h0v0h0l0,0,0-.05s0-.05,0-.13.08-.1.1-.09a.29.29,0,0,1,.1-.24q.17-.34.3-.67t.29-.67a2.38,2.38,0,0,1,.1-.33,1.79,1.79,0,0,1,.15-.31.41.41,0,0,1,0-.24,1.15,1.15,0,0,0,.08-.24l.08,0s0,0,0,0,0,0,0,0a.13.13,0,0,0,0-.08s0,0,.05,0,0-.05,0-.05.05,0,.05-.07a.1.1,0,0,1,0-.07s0,0,0,0a.08.08,0,0,1,0-.06s0,0,0,0,0,0,0,0a.86.86,0,0,1,.05-.3l.1-.27v0s0,0,0-.05l0,0a3.7,3.7,0,0,1,.11-.46,1.62,1.62,0,0,0,.08-.46.76.76,0,0,0-.13.13.46.46,0,0,1-.14.12s0,0,0,.05a.06.06,0,0,1,0,.05.65.65,0,0,0-.26.29,1.48,1.48,0,0,1-.19.33.31.31,0,0,1-.13.28.36.36,0,0,0-.15.28.55.55,0,0,0-.15.19.55.55,0,0,1-.15.19.88.88,0,0,1-.09.17l-.11.17a.28.28,0,0,1,0,.14l-.07.13a.07.07,0,0,1,0,.07s0,0,0,0,0,0,0,0,0,0,0,0l0,0,0,0A.8.8,0,0,1,105.58,7.41Zm-1.08.71a1.14,1.14,0,0,1-.15.3.36.36,0,0,0-.07.29.71.71,0,0,1,.2-.42.13.13,0,0,1,0-.1S104.51,8.12,104.5,8.12ZM104.3,8a.11.11,0,0,1,0,.08.15.15,0,0,0,0,.07.29.29,0,0,0,.06-.1s0-.07,0-.08S104.33,8,104.3,8Zm0-.13s0,0,0,0,0,0,0,0,0,0,0,0S104.34,7.89,104.33,7.9Zm0,3.76,0,0Zm0-4.07v0a0,0,0,0,1,0,0,0,0,0,0,0,0,0,0,0,0,0,1,0,0Zm.12.25s0,0-.05,0,0,0,0,.06a0,0,0,0,1,0-.05A0,0,0,0,0,104.43,7.85Zm0-.08h-.05l0,0h0Zm0,0a.05.05,0,0,0-.05,0v0Zm.15.1a.13.13,0,0,0-.09.11.21.21,0,0,1-.06.13.16.16,0,0,0,.07-.1.25.25,0,0,1,.07-.12Zm-.05-.39,0,.07,0,.07,0,0s0,0,0,0a.09.09,0,0,1,0-.08A0,0,0,0,0,104.6,7.46Zm0-.12s0,0,0,.05S104.6,7.38,104.59,7.34Zm0,0s0,0,0,0,0,0,0,0S104.59,7.33,104.6,7.33Zm.07,0s0,.06,0,.07a0,0,0,0,0,0,.05l.08-.12a.25.25,0,0,0,0-.13.15.15,0,0,1-.08.1.11.11,0,0,0-.06.1s0,0,0,0S104.65,7.36,104.67,7.36Zm-.05-.08s0,0,0,0,0,0,0,0Zm.1-.15c-.07,0-.09,0-.07.08A.19.19,0,0,0,104.72,7.12Zm.12.27-.12.21a.4.4,0,0,0-.07.21l.11-.19A.55.55,0,0,0,104.84,7.39Zm-.15-.1h0v0l0,0Zm.08-.3s0,0-.05,0,0,0,0,.06a0,0,0,0,0,0-.05A0,0,0,0,1,104.77,7Zm0-.1s0,0,0,0,0,0,0,0a0,0,0,0,0,0,0S104.82,6.89,104.8,6.89Zm0,.19s0,0,0,0,0,0,0,0h-.05a.15.15,0,0,1,0,.07h0A0,0,0,0,0,104.84,7.07Zm.56-.74-.28.51q-.14.25-.28.54a.12.12,0,0,0,.06-.08s0-.06.08-.07A.45.45,0,0,1,105.1,7a.22.22,0,0,0,.08-.22.25.25,0,0,0,.13-.17.34.34,0,0,1,.1-.19s0,0,0-.05S105.42,6.33,105.4,6.33Zm-.47.4a.2.2,0,0,1-.06.07s0,0,0,.07l.06-.08S104.95,6.74,104.92,6.74Zm-.05,4.08s0,0,0,0,0,0,0,0a0,0,0,0,0,0,0S104.85,10.82,104.87,10.82ZM105,6.75a.15.15,0,0,1-.08,0s0,0,0,.08l0,0,0,0s0,0,0,0,0,0,0,0l0,0S105,6.77,105,6.75Zm0-.44s0,0,0,0,0,0,0,0Zm.07.29s0,0,0,0,0,0,0,0a0,0,0,0,1,0-.06S105.07,6.59,105,6.6Zm0,3.69s0,0,0,0a0,0,0,0,0,0,0h.05S105.08,10.27,105.06,10.29Zm.05.08s0,0,0,.06,0,0,0,0l.07-.1Zm0-3.91s0,0,0,0,0,0,0,0,0,0,0,0S105.15,6.47,105.13,6.47Zm0-.42s0,0,0,0,0,0,0,0,0,0,0,0Zm0,.2,0,0s0,0,0,0,0,0,0,0,0,0,0,0l-.05.15.09-.13c0-.06,0-.1,0-.12s0,0,0,.06S105.17,6.27,105.16,6.25Zm0-.3-.05,0v0h0Zm.12.14a.1.1,0,0,0,0,.07,0,0,0,0,0,0,0S105.33,6.08,105.31,6.08Zm0-.1s0,.07,0,.08,0,0,0,0,0,0,0,0a.13.13,0,0,1,0-.08S105.37,6,105.34,6Zm.05,0s0,0,0,0Zm0-.4a0,0,0,0,1,0,0v0h0A0,0,0,0,1,105.43,5.55Zm.07.57a.18.18,0,0,0-.07.15.1.1,0,0,0,0-.08A.1.1,0,0,1,105.5,6.13Zm.05-.56a0,0,0,0,1,0,0s0,0,0,0a.05.05,0,0,0,.05,0S105.57,5.57,105.55,5.57Zm.12,4s0,0,0,0,0,0,0,0Zm0-.14a0,0,0,0,1,0,0s0,0,0,0v0S105.62,9.41,105.63,9.42Zm.27-4.3a.94.94,0,0,0-.27.39Zm-.07,4.18a.12.12,0,0,1,0-.1s0,0,0,0,0,0-.07,0,0,.11.07.12,0,0,0,0,0,0,0,0,0,0,0,0,0,0,0,0l0,0s0,0,0,0,0,0,0,0,0,0,0,0h0s0,0,0,.05l.05-.05ZM106,5.42a.87.87,0,0,0-.14.19l-.11.19.15-.16A.5.5,0,0,0,106,5.42Zm-.15,3.73s0,0,0,0,0,0,0-.06h-.08s0,0,0,0S105.78,9.13,105.8,9.15Zm.15-.07s0-.06,0,0V9.1Zm0-.13s0,0,0,0,0,0,0,0,0,0,0,0S106,8.92,106,8.95Zm.13-4.13v0h0a0,0,0,0,1,0,0Zm.05,4a0,0,0,0,1,0,0l0,0v0Zm0-.17s0,0,0,0,0,0,0-.05h0a0,0,0,0,1,0,.05S106.1,8.65,106.12,8.66Zm.12-.15s0,0,.05-.07a.1.1,0,0,0-.07,0,0,0,0,0,0,0,0h0v0h0l-.07.1s0,0,0,0,0,0,0,0,0,0,0,0Zm0-.15s0,0,0,0h0Zm0,6.06v.07l.05,0a.07.07,0,0,1,0-.05Zm.08-.12s0,0,0,.07S106.35,14.3,106.34,14.29Zm0,.37a0,0,0,0,0,0,0,.07.07,0,0,1,0,0l0,0s0,0,0,.05a0,0,0,0,1,0-.05A.05.05,0,0,1,106.37,14.66Zm0-6.36h.05a.1.1,0,0,0,0,.07s-.05,0-.05,0,0,0,0,0S106.38,8.32,106.36,8.3Zm.05.91a0,0,0,0,1,0,0s0,0,0,0a0,0,0,0,0,0,0S106.39,9.22,106.41,9.22Zm.1-1.37a0,0,0,0,1,0,.07l-.06.05a.08.08,0,0,1,.07-.08Zm0,6.58s0,0,0,0a0,0,0,0,0,0,0s0,0,0,0S106.47,14.42,106.49,14.43Zm.19-.71s-.05,0-.05.05a.1.1,0,0,1,0,.07s0,0,0,0,0,0,0,0,0-.06,0-.07,0,0,0-.07h0S106.69,13.72,106.68,13.72Zm0-6.19s0,0,0,0a0,0,0,0,0,0,0l0,0A.1.1,0,0,1,106.66,7.53Zm.13,6.93s0,0,0,0,0,0,0,0a0,0,0,0,1,0,0s0,0,0,0,0,0,0-.05A.06.06,0,0,0,106.8,14.46Zm0-7.3s0,0,0,0,0,0,0,0a0,0,0,0,0,0,0S106.78,7.18,106.78,7.16Zm.1-.32s0,0,0,0a0,0,0,0,0,0,0S106.88,6.86,106.88,6.84Zm.15.57v0l0,0v0Zm.15,5.35s0,0,.05,0a.05.05,0,0,1,.05,0,0,0,0,0,0,0,0v0h0a0,0,0,0,1,0,0h0l-.06.14s-.06.07-.13.07,0,0,0,0,0,0,0,0,0,0,0,0a0,0,0,0,1,0,0s0,0,0,0,0,0,0,0h.05s0,0,0,0a.19.19,0,0,0,.07-.12s0,0,0,0,0,0-.05,0,0,0,0,0,0,0,0,0,.1,0,.08-.06,0-.07.05-.09,0,0,0,0S107.18,12.74,107.18,12.76Zm-.1-5.58a0,0,0,0,0,0,0s0,0,0,0,0,0,0,0S107.07,7.15,107.08,7.17Zm0,5.84s0,0,0,0,0,0,0,0Zm.15-5.79v0a.22.22,0,0,0-.05.08.06.06,0,0,0,0,.08s0,0,0,0,0,0,0,0a.07.07,0,0,0,0-.05S107.25,7.24,107.27,7.22Zm0-1.3v0h0l0,0Zm.1,6.6c0,.09,0,.14,0,.15s0,0,0,0,0,0,0,0,0,0-.05,0a.11.11,0,0,1-.05.05.13.13,0,0,1,.06-.08Zm-.1-6.61s0,0,0,0a0,0,0,0,1,0,0s0,0,0,0S107.24,5.9,107.25,5.91Zm0,6.76s0,0,0,0,0,0,0,0A.07.07,0,0,0,107.27,12.67Zm0,1.28s0,0,0,0,0,0,0,0a.1.1,0,0,0,.07-.07,0,0,0,0,1,0,0S107.32,13.94,107.3,14Zm0-.1s0,0,0,0,0,0,0,0,0,0,0,0,0,0,0,0a.44.44,0,0,1,.11-.19.35.35,0,0,0,.09-.21h-.05l-.09.2C107.41,13.81,107.36,13.85,107.3,13.85Zm.05-8.28s0,0,0,0,0,0,0,0,0,0,0,0Zm0,6.8s.05,0,.05,0S107.34,12.39,107.34,12.37Zm.05-6.93s0,0,0,0,0,.05,0,.05,0,0,0,0S107.41,5.46,107.39,5.44Zm0,1.4a0,0,0,0,0,0,0s0,0,0,0,0,0,0,0A0,0,0,0,0,107.42,6.84Zm0-.05h0v0h0Zm.14,6.16s0,0,0,0v0l-.1.13a.46.46,0,0,1,.12-.2s0,0,0,.07Zm-.08-.54s0,0,0-.08,0,0,0-.06,0,0,0,.07S107.5,12.38,107.44,12.4Zm.15-7.52s0,0-.05,0,0,0,0,0h.08Zm-.05,1.67a.05.05,0,0,0,0,0l0,0v0Zm0-1.8s0,0,0,0,0,0,0,0,0,0,0,0S107.57,4.75,107.55,4.75Zm0,8s0,0,.05-.05a0,0,0,0,0,0,0S107.56,12.79,107.54,12.79Zm.05.19s0,0,0-.07,0-.06,0,0a.15.15,0,0,0,0-.08.12.12,0,0,1,.06-.08s0,0,0,.05,0,0,0,.05a.08.08,0,0,0,0,0,.08.08,0,0,1,0,0,.12.12,0,0,1-.05.13Zm0-.84h0v0a0,0,0,0,1,0,0Zm0,1.37.05,0s0,0,0-.05l.07,0a.08.08,0,0,1,0-.06s0,0,0,0Zm.05-8.86a0,0,0,0,1,0,0s0,0,0-.05S107.62,4.62,107.62,4.64Zm0,0s0,0-.05,0h.05Zm.39,7.17a1.27,1.27,0,0,1-.16.46q-.13.22-.26.42.12-.2.22-.42Zm-.32.84s0,0,0,0a0,0,0,0,1,0,0S107.73,12.63,107.72,12.62Zm0,0a.11.11,0,0,1,0-.08.07.07,0,0,0,0-.08c.06,0,.08-.05.08-.08a.1.1,0,0,1,.05-.08l-.06.17A.31.31,0,0,1,107.76,12.61Z"/><path class="cls-1" d="M108.36,14.9v0a3.88,3.88,0,0,0,.81-.13,2,2,0,0,0,.69-.31.38.38,0,0,0,.25-.1.19.19,0,0,1,.22-.05l-.35.18-.35.19a4.71,4.71,0,0,0,1-.46,3.06,3.06,0,0,0,.8-.67l.2-.13.28-.23.27-.24.18-.16a.21.21,0,0,0,.15-.12.2.2,0,0,1,.14-.12c0-.08.05-.12.09-.13s.07,0,.09-.11a.17.17,0,0,0,.13-.08.21.21,0,0,1,.12-.1s0,.05,0,.05,0,0,0,.05-.05,0-.05,0,0,0,0,0a0,0,0,0,0,0,0s0,0,0,0-.08,0-.08,0,0,0-.08,0,0,0,0,0a.16.16,0,0,1-.09.12.08.08,0,0,0,0,.12l-.15.16a1.05,1.05,0,0,0-.12.16l-.2.13-.28.23-.27.23-.16.12s0,0,0,0,0,0,0,0,0,0,0,0,0,0,0,0v0h0s0,0,0,0,0,0,0,0a.3.3,0,0,0-.1.08.29.29,0,0,1-.1.08.19.19,0,0,1-.08.13l-.13.08-.13.09a.22.22,0,0,0-.08.12l.25-.2s0,0,0,.05h.05a.23.23,0,0,1,.16-.08c.07,0,.1-.06.08-.13a.11.11,0,0,0,.16,0l.13-.15a.36.36,0,0,0,.17-.09l.24-.2.24-.2a.7.7,0,0,1,.17-.11,14.35,14.35,0,0,1,1.47-1.52v0a.28.28,0,0,1-.13.25.56.56,0,0,0-.19.22s0,0,0,0,0,0,0,0a4.43,4.43,0,0,1-.36.63,5,5,0,0,1-.45.55.53.53,0,0,1-.15.24,3.85,3.85,0,0,1-.3.29l-.33.27a1.25,1.25,0,0,0-.21.19.3.3,0,0,1,0,.12,1,1,0,0,0-.42.4h-.05a3.32,3.32,0,0,1-1.28.62,4,4,0,0,1-1.65,0,.07.07,0,0,1,0-.05,1.47,1.47,0,0,1-.88-.64.49.49,0,0,1-.26-.28,2.45,2.45,0,0,0-.18-.36.13.13,0,0,1,0-.08.39.39,0,0,1-.08-.38,1.22,1.22,0,0,0,0-.41l.05-.15a1.13,1.13,0,0,0,0-.19s0,0,0,0,0,0,0,0a.06.06,0,0,1,0-.05s0,0,0-.05,0,0,0,0,0,0,0,0a.16.16,0,0,0,0-.09.12.12,0,0,1,.08-.09,0,0,0,0,0,0,0,0,0,0,0,1,0,0s0,0,0,0l0,0s0,0,0,0a.08.08,0,0,1,0-.06h.07s0,0,0,0,0,0,0,0l.1-.05h-.07s0-.06,0-.06h.05s0,0,0,0a.08.08,0,0,0,.06,0h-.05a.12.12,0,0,0,0-.08.37.37,0,0,1,0-.08s0,0,0,0,0,0,0,0,0,0,0,0,0,0,0,0l0,0,0,0s0,0,0,0,0,0,0,0a.6.6,0,0,0,.08-.16.29.29,0,0,0,0-.19s0,0,0,0,0,0,0,0l0-.05h-.05a.36.36,0,0,1,.06-.14l.08-.13v0h0v0h0s0,0,0,0,0,0,0,0,0,0,0,0a.07.07,0,0,0,0-.06l.05,0a0,0,0,0,1,0,0,0,0,0,0,0,0,0s0,0,0,0,0,0,0,0,0,0,0,0,0,0,0,0,0-.07,0-.07,0,0,0-.05.05,0,.08,0a.14.14,0,0,1,.1-.06s0,0,0,0l-.05,0a0,0,0,0,1,0,0s0,0,0,0,0,0,0,0,0,0,0,0,0-.06,0-.07a.21.21,0,0,0,.12-.08.1.1,0,0,0,0-.12s0,0,0,0,0,0,0,0l0,.05s0,0,0-.08,0,0,0,0,0,0,0,0,0,0,0,0,0,0,0,0l.08-.06a.36.36,0,0,0,0-.11s.07,0,.08,0,0,0,.06,0,0-.05,0-.05a.21.21,0,0,0,.05-.08.11.11,0,0,1,.08-.07,0,0,0,0,0,0,0,.36.36,0,0,1,.09-.09.24.24,0,0,0,.08-.08s0,0,0,0,0,0,0,0a.13.13,0,0,1,0,0q.32-.22.67-.43a1.52,1.52,0,0,1,.84-.19.32.32,0,0,0,.3,0,1.74,1.74,0,0,0,.22.19l.25.17a4.94,4.94,0,0,1,.35.52,1.17,1.17,0,0,1,.11.67s0,0,0,0,0,0,0,0a.28.28,0,0,1,0,.07.09.09,0,0,0,0,.07.05.05,0,0,0-.05,0,.07.07,0,0,1-.07,0,.35.35,0,0,1-.07.18.51.51,0,0,0-.08.14.25.25,0,0,0-.17.14A.2.2,0,0,1,111,12q-.41.1-.42-.1a2.56,2.56,0,0,1,.13-.74.48.48,0,0,0,.09-.19l.06-.23,0,0s0,0,0,0,0,0,0,0a1.33,1.33,0,0,0-.48.13A1.39,1.39,0,0,0,110,11s-.07,0-.08,0,0,0-.09,0a5,5,0,0,0-.71.76l-.64.84-.24.47a1.91,1.91,0,0,0-.17.56.81.81,0,0,0-.16.45q0,.28-.06.56l.08.2.18,0,.16,0h.08ZM107,13.62s0,0,0,0a0,0,0,0,0,0-.06s0,.05,0,.06S107,13.6,107,13.62Zm.34-.93s0,0,0-.06,0,0,0,0,0,0,0,0S107.33,12.7,107.35,12.69Zm0-.08.11-.17a.21.21,0,0,0,0-.19l-.07.19Zm.08-.34h0v0h0Zm0,.51a.07.07,0,0,0,0,.05s0,0,0,0,0,0,0,0Zm0,.22v0h0s0,0,0,0,0,0,0,0Zm0-.12a.08.08,0,0,0,.05-.1h-.05a.1.1,0,0,1,0,.06S107.5,12.86,107.52,12.88Zm0-.66v0h0v0Zm.12.35a.15.15,0,0,1,0-.08s0-.06,0-.08a.13.13,0,0,1,0,.09S107.63,12.55,107.66,12.57Zm.12-.78s0,0,0,0h0v-.05s0,0,0,0A0,0,0,0,1,107.77,11.8Zm.05.44s0,0,.05,0,0,0,0,0,0,0,0,0S107.81,12.21,107.82,12.23ZM108,12a.06.06,0,1,0-.07.1.06.06,0,0,1,0-.05Zm0-.27,0,0s0,0,0,0,0,0,0,0S108,11.77,108,11.75Zm.17-.15s0,.06-.08.06-.05,0-.08.08a0,0,0,0,0,0,0s0,0,0,0,0,.06,0,0a.05.05,0,0,1,.05,0,.51.51,0,0,1-.15.24s0,0,0,0a0,0,0,0,0,0,.05s0,0,0,0,0,0,0,0l.09-.1.11-.08s0-.05,0-.05,0,0,0,0,0,0,0-.05l0,0a.13.13,0,0,1,0-.08A.08.08,0,0,1,108.15,11.59Zm-.13-.1a0,0,0,0,0,.05.05S108.05,11.52,108,11.49Zm.19-.17-.08.06s0,.05,0,.08l.06-.07Zm.1.17a.1.1,0,0,1,0,.1s0,0,0,0,0,0,0,0a.07.07,0,0,0,0,.05.58.58,0,0,1,.17-.21,1.13,1.13,0,0,0,.19-.18,0,0,0,0,0,0,0,.08.08,0,0,0,0,0,0,0,0,0,1,0,0l-.07,0s0,0,0-.08-.08,0-.09,0,0,0-.08,0a.15.15,0,0,0,0,.07s0,0-.05,0a.11.11,0,0,0,0,.05s0,0,0,.05,0,0,0,0,0,0,0,0a0,0,0,0,1-.05.05v.07a.14.14,0,0,0-.08.06l-.06.08s0,0,0,0a0,0,0,0,0,0,0l0,.06s0,0,0,0l0,0s0,0,0,0,0,0,0,0,0,0,0,0a0,0,0,1,0,.07,0s0,0-.05,0,0,0,0,0,0,0,.05,0A.05.05,0,0,1,108.3,11.49Zm.13-.49a0,0,0,0,0,0,.05s0,0,0,0,0,0,0,0,0,0,0,0l0-.08A.06.06,0,0,0,108.43,11Zm.07-.14s0,0,0,0h-.05a0,0,0,0,1,0,0A0,0,0,0,0,108.5,10.87Zm.07,0s-.05,0-.05,0,0,0-.05,0a0,0,0,0,1,0,0s0,0,0,0,0,0,.05,0v0s0,0,0,0a0,0,0,0,1,0,0C108.57,11,108.59,10.93,108.57,10.89Zm-.1,0v0h0v0Zm.05.13a0,0,0,0,0,0,0h0Zm.07-.07v0h0v0Zm.15.15h0l0,0a.3.3,0,0,1,.12-.09.24.24,0,0,0,.12-.13H109a.07.07,0,0,1,0,.06.06.06,0,0,1-.08,0Zm.71,3.69a.09.09,0,0,1,.08,0,.09.09,0,0,0,.08-.06l-.15.05a.12.12,0,0,0-.08.05Zm1.5-.69-.15.09a.32.32,0,0,0-.13.13l.21-.1a.49.49,0,0,0,.18-.12.07.07,0,0,0-.06,0S111,14.15,110.95,14.11Zm-.07-3.53h0Zm0,0v0h0v0Zm.51,3.61v0h0v0Zm.3.24s0,0,0,0v-.05s0,0,0,0S111.69,14.46,111.7,14.46Zm.76-1.11a2.3,2.3,0,0,0,.5-.43l.4-.48-.44.43-.44.45a0,0,0,0,1,0,0S112.45,13.34,112.46,13.35Zm1.5-1.65s0,0-.07.05Z"/><path class="cls-1" d="M113.73,11.53l.15-.14a0,0,0,0,0,0,0h0s0,0,0,0,0,0,0,0,.05,0,.05,0,0,0,0,0,0,0,0,0a.09.09,0,0,1,.08-.06.09.09,0,0,0,.08-.06s0,0-.07,0,0,0,0,0,0,0,0,0,0,0,0,0,0,0,0,0,0,0,0,0,0,0,0,0l.05-.07s0,0,0,0,0,0,0,.05l.05,0a.06.06,0,0,1,.05,0,.18.18,0,0,1,.14-.17.32.32,0,0,0,.19-.13s0,0,0,0h0l0,.05,0,.05h-.06s0,0,0,0,0,0,0,0,0,0,0,0,0,0,0-.07l.09-.07s0,0,0-.05l.12-.14h.08s0,0,0,0,0,0,0,0h0s0,0,0,0,0,0,0,0a.05.05,0,0,0,.07,0,.11.11,0,0,0,0-.08s0,0,0,.05,0,0,0-.07a.15.15,0,0,0,.12-.07s0,0,0,0,0,0,0,0,0,0,0,0,0,0,0,0l.05,0,.14-.05s0,0,0,0,0,0,0,0a.07.07,0,0,0-.07.05s0,0,0-.05.05,0,.05-.05l0,0s0,0,0,0,0,0,0-.06a.19.19,0,0,1,.11,0v.05l.05,0s0,0,0,0,0,0,0,0h.07v0a0,0,0,0,0,0,0s0,0,0,0a.13.13,0,0,1,.07-.11.2.2,0,0,1,.15,0s0,0,0,0a.31.31,0,0,1,.18-.1l.21-.07v0a.33.33,0,0,1,.22,0l.24.06h.21a.78.78,0,0,1,.24,0,.89.89,0,0,1,.41.21,1.57,1.57,0,0,0,.35.24v.05a.46.46,0,0,1,.24.09.79.79,0,0,0,.23.13.35.35,0,0,0,.05.19l.1.17a2.25,2.25,0,0,1-.24.56q-.15.25-.29.51a.19.19,0,0,1,0,.19.23.23,0,0,0-.06.19s0,0,0-.05,0,0,0,0a.07.07,0,0,0,0,.05.08.08,0,0,0-.08.05.62.62,0,0,0,0,.11.28.28,0,0,0,0,.12s0,.06,0,.06l-.07.06s0,.05,0,.11,0,0,0,0a0,0,0,0,1,0,0s0,0,0,.05a.1.1,0,0,0,0,.05h-.05s0,0,0,0a0,0,0,0,0,0,0l.07.05a3.34,3.34,0,0,0-.17.87,2.28,2.28,0,0,0,.1.89,1,1,0,0,0,.59-.34.17.17,0,0,0,.13-.13q.1,0,.11-.07c0-.06,0-.08.11-.08l-.08.05s0,0,.05,0,0,0,0,0,0,0,0,0-.07,0-.07.08,0,0,0,0,0,0,0,0a.24.24,0,0,1-.09.14l-.16.11s0,0,.05,0,0,0,0-.05H118s0,0,0-.05a.47.47,0,0,0,.27-.17.77.77,0,0,1,.22-.2q.39-.54.79-1a8.57,8.57,0,0,0,.74-1.07s0,0,0,0,0,0,0,0a.09.09,0,0,0,.12,0c0,.06,0,.07,0,0s0,0-.05,0v.08q-.1-.07-.1.1s0,0,0,0,0,.07,0,.07a0,0,0,0,0,0,0s0,0,0,0,0,0,0,0,0,0,0,0a.3.3,0,0,0-.14.14l-.11.21a.26.26,0,0,0-.17.21.27.27,0,0,1-.2.21,3,3,0,0,1-.32.53l-.37.5c.06,0,.1,0,.14-.09S119,14,119,14s0,0,0,0a.07.07,0,0,1,0-.07h.07s0,0,0,0,0,0,0,0,0,0,0,0a1,1,0,0,0,.29-.28,3.48,3.48,0,0,0,.23-.36.44.44,0,0,0,.19-.22,2.69,2.69,0,0,1,.12-.27,1.08,1.08,0,0,0,.25-.28,2.93,2.93,0,0,0,.19-.35.32.32,0,0,1-.05.3.52.52,0,0,0-.1.32s0,0,0,0q-.1.24-.24.51a4.52,4.52,0,0,0-.22.51.18.18,0,0,0-.09.1l-.06.15h-.07a.28.28,0,0,1-.12.19s0,.06,0,.08,0,0,0,0,0,0,0,0a1,1,0,0,1-.37.42.63.63,0,0,1-.34.47l-.54.29a2,2,0,0,1-1.37-.26,1.63,1.63,0,0,1-.68-1s0,0,0,0,0,0,0,0,0,0,0,0a3.05,3.05,0,0,1,0-.52,5.17,5.17,0,0,0,0-.52,0,0,0,0,0,0,0,.14.14,0,0,1,0-.07q-.25.3-.52.57a5.18,5.18,0,0,0-.51.59l-.42.44a4.4,4.4,0,0,0-.46.27A1.8,1.8,0,0,1,114,15a1,1,0,0,1-.35.08,2.13,2.13,0,0,1-.51-.06.33.33,0,0,1-.21-.16,1.11,1.11,0,0,0-.16-.21,1.9,1.9,0,0,1-.24-.6,1.15,1.15,0,0,1,0-.65l0,0a.07.07,0,0,0,0,.05s0,0,0,0,0,0,0,0,0,0,0-.08,0-.06.06-.05,0,0,0,0l0,0q.08,0,.07-.07a.08.08,0,0,1,.07-.1s0,0,0-.05,0,0,0-.05,0,0,0,0,0,0,0,0,0,0,0-.07a.11.11,0,0,1,.08,0s0,0,0,0,0,0,0,0,0,0,0,0,0,0,0,0,0,0,0-.08,0,0,0,0,0,0,0,0a.06.06,0,0,1,.08,0s0,0,0,0,0,0,0,0a.13.13,0,0,0,.15-.11.4.4,0,0,1,.07-.16s0,0,0,0a.06.06,0,0,0,.06,0v0s0,0,0,0a0,0,0,0,1,0,0,.05.05,0,0,0,0,.05s0,0,0,0,0,0,0,0,0,0,0,0a.21.21,0,0,1,.09-.05.11.11,0,0,0,.08-.08s0-.05,0-.12a.07.07,0,0,1,0-.05,0,0,0,0,1,0,0v-.07l.07,0s0,0,0-.08,0,0,0,0,0,0,0,0,0,0,0,0,0,0,0,0,0,0,0,0,0,0,0,0l.05-.07v0h0v0l.15-.13c0,.06,0,.06.08,0a.12.12,0,0,0,0-.14,0,0,0,0,0,.07,0l.07-.07s0,0,0,0,0,0,0,0a.15.15,0,0,0,.1-.05v0h0v0Zm-1.16,2.26s0,0,0,0,0,0,0,0Zm.05-.1a.06.06,0,0,1,0-.07,0,0,0,0,0,0-.07.15.15,0,0,1,0,.07A.05.05,0,0,0,112.61,13.69Zm0-.19s0,0,0-.06,0,0,0,0,0,0,0,0S112.63,13.51,112.65,13.5Zm0-.15.25-.43a1.72,1.72,0,0,0,.19-.41c-.08.16-.16.3-.24.43A2.56,2.56,0,0,0,112.67,13.35Zm.24.1s0,0,0,0a0,0,0,0,0,0,0l-.05,0a0,0,0,0,0,0,0l0,0s0,0,0,0h0a.15.15,0,0,1,0,.08s0,0,0,.06a.18.18,0,0,0,.05-.13h0l0,0a0,0,0,0,0,0,0Zm.17-.24a.15.15,0,0,1,0-.07.06.06,0,0,0,0-.07.07.07,0,0,1,0,.06s0,0,0,0a.39.39,0,0,0-.07.1.11.11,0,0,0,0,.12s0-.08.07-.1v-.07S113,13.2,113.07,13.21Zm.07-1s0,0,0,0a.07.07,0,0,1,0,0s0,.05,0,.05Zm-.05.83s0,0,.06-.05a.07.07,0,0,0,0-.08l0,.05S113.08,13,113.09,13.08Zm.07-.86s0,0,0,0,0,0,0,0h0v0Zm.2-.08-.13.15a.29.29,0,0,0-.06.17.87.87,0,0,1,.08-.16Zm-.15.73h0v0h0Zm0,0a1,1,0,0,0,.24-.34.91.91,0,0,1,.26-.34.38.38,0,0,1,.17-.2.3.3,0,0,0,.14-.25h0q-.29.39-.57.73a.49.49,0,0,1-.1.21A.49.49,0,0,0,113.21,12.84Zm.05-.73s0,0,0,0,0,0,0,0a0,0,0,0,1,0,0S113.24,12.13,113.26,12.12Zm3.85-1.35v-.05H117a.13.13,0,0,1,0-.08h-.17c0,.06,0,.08-.05.08s0,0,0,0,0,0,0,0a.47.47,0,0,0-.23.05,1,1,0,0,1-.23.08s0,0,0,0,0,0,0,0,0,0,0,0,0,0-.08,0a1.54,1.54,0,0,1-.29.23l-.31.19a2.32,2.32,0,0,0-.3.23,1,1,0,0,0-.23.3.15.15,0,0,0-.12,0,.22.22,0,0,0,0,.05s0,0,0,0,0,0,0,0,0,0,0,0a.45.45,0,0,1-.13.25,1,1,0,0,1-.23.15q-.34.47-.62,1a7.15,7.15,0,0,0-.51,1.06s0,.05,0,.06,0,0,0,0,0,0,0,0,0,0,0,0a1,1,0,0,0,.24-.13.48.48,0,0,1,.24-.09.27.27,0,0,1,.09-.13l.14-.08,0-.06s0,0,.06,0a.2.2,0,0,1,.1-.12.1.1,0,0,1-.05.14c-.06,0-.08.06-.08.09a.58.58,0,0,0-.2.13.22.22,0,0,1-.19.08s0,.07-.07.08a.15.15,0,0,0-.08,0,.12.12,0,0,0,.14,0l.08-.1s0,0,.07,0a.53.53,0,0,1,.2-.15.87.87,0,0,0,.22-.14,3.94,3.94,0,0,1,.62-.67.18.18,0,0,1,0-.12.08.08,0,0,1,.09,0,.54.54,0,0,1,.15-.2.7.7,0,0,1,.29-.29.94.94,0,0,1,.14-.25.59.59,0,0,1,.19-.17s0,0,0-.08a.07.07,0,0,0,.06,0,.06.06,0,0,0,0-.07A.23.23,0,0,0,116,12l.07-.09h0a0,0,0,0,1,0,0l0,0,0,0a.82.82,0,0,1,.12-.18.49.49,0,0,0,.1-.21l.05,0s0,0,0,0a.47.47,0,0,1,.16-.24.27.27,0,0,0,.11-.24.07.07,0,0,0,.07,0s0,0,0,0,0,0,0,0,0,0,0,0,0,0,0,0,0,0,0,0l0-.1,0,0a0,0,0,0,1,0,0s0,0,0,0,0,0,0,0,0,0,0,0,0,0,.05,0,0,0,.07,0,0,0,0,0,0,0,0,0h0s0,0,0,0l0,0s0,0,0,0h0a.07.07,0,0,1,0,.06s0,0,0,.06,0,0,0,0,0,0,0,0a.16.16,0,0,1,0,.1s0,.06,0,.08a.12.12,0,0,0,0,.06s0,0,0,0,0,0,0,0,0,0,0,0l-.08.08-.09.08v0l-.05.05h0s0,0,0,0l-.06.06a.19.19,0,0,0,0,.08s0,0,0,0,0,0,0,0l-.11.16-.13.16a.07.07,0,0,1,0-.05.07.07,0,0,0,0-.05l-.07.08s0,.05,0,.08l0,0s0,0,0,0,0,.08-.06.08-.08,0-.08.06,0,0,0,0,0,0,0,0a.19.19,0,0,1-.1.07,0,0,0,0,1,0,0s0,0,0,0,0,.07,0,.13,0,0,0,0,0,0,0,0a.18.18,0,0,0-.07.08s0-.05,0-.05l-.07.09s0,.06,0,.06l-.19.28-.19.23,0,0s0,0,0,0a0,0,0,0,1,0,0s0,0,0,0,0,0,0,0,0,0,0,0,0,0,0,0a.28.28,0,0,1,0,.08s0,0,0,0a.07.07,0,0,1,0,.05s0,0-.08,0-.05,0-.08,0a.07.07,0,0,1,0,.05v0l-.05,0-.05,0a.07.07,0,0,0,0,.05s0,0,0,0h0s0,0,0,0,0,0,0,0,0,0,0,0,0,0,0,0,0,0,0,0a.07.07,0,0,0,0,.05,0,0,0,0,1,0,0,.11.11,0,0,1,0,.08.05.05,0,0,1-.07,0,.07.07,0,0,0,0-.07s0-.05,0-.05a.16.16,0,0,1-.07.13l-.14.1a.16.16,0,0,0,0,.14s0,0,0,0,0,0,0,0v0l0,0s0,0,0,0,0,0,0,0,0,0,0,0,0,0,0,0,0,.05-.05,0a.07.07,0,0,0,0,.05,1.38,1.38,0,0,1,.24-.22l.25-.19s0,0,0,0,0,0,0,0a.29.29,0,0,0,.13-.19c0-.08.08-.13.19-.14l.6-.72a5.54,5.54,0,0,0,.53-.78s0,0,0,0a2.8,2.8,0,0,1,.23-.4,1.41,1.41,0,0,0,.19-.44Zm-3.73,1.13s0,0,0,0h0s0,0,0,0,0,0,0,0h0Zm0,.15h0v0h0Zm0,0v0h0v0Zm0,0v0h0v0Zm0,2.46a.15.15,0,0,0,.13-.08l-.08,0S113.46,14.46,113.46,14.5Zm.47-3.09-.24.27a1.75,1.75,0,0,0-.21.27.11.11,0,0,0,.07-.05.11.11,0,0,1,.07-.05.25.25,0,0,1,.07-.12s.06,0,.08,0,0-.1.08-.17S113.94,11.43,113.93,11.41Zm-.42.27,0,0A0,0,0,0,1,113.51,11.68Zm.08.19s0,0,0,0,0,0,0,0,0,0,.05-.07Zm.14-.34,0,0A0,0,0,0,1,113.73,11.53Zm.24-.05s0,0-.07.08A.18.18,0,0,0,114,11.48Zm.07-.2s0,.05,0,.06,0,0,0,0,.05,0,.05,0,0,0,.05,0v-.05Zm0,.46v0h0v0Zm.41-.42s0,0,0,0a0,0,0,0,0,0,0l-.19.19a.78.78,0,0,0-.17.23,1.6,1.6,0,0,0,.37-.35v0A0,0,0,0,0,114.44,11.31Zm-.35,0s0,0,0,0,0,0,0,0l0,0a0,0,0,0,1,0,0s0,0,0,0,0,0,0,0,0,0,0,0Zm.12-.24s0,0-.07,0,0,0,0,0,0,0,0,0,0,0,0,0Zm0,.19.05,0h-.05Zm.08-.22s0,0,0,0,0,0,0,0,0,0,0,0,0,0,0,0v0Zm.14.08a.1.1,0,0,0-.05-.08s0,.06-.07.05a.07.07,0,0,1,0,0s0,0,0,0a.08.08,0,0,0,0,0l0-.06S114.41,11.09,114.44,11.09Zm-.07-.1s0,0,0,0h0Zm0,0a0,0,0,0,0,0,0A0,0,0,0,1,114.37,11Zm.27.13a.13.13,0,0,0-.08.06.1.1,0,0,1-.09,0s0,0,0,0,0,0,0,0l.05,0a.08.08,0,0,1,.07,0s0-.07,0-.08A0,0,0,0,0,114.64,11.1Zm-.15-.52s0,0,0,0,0,0,0,0l0,0s0,0,0,0,0,0,0,0a0,0,0,0,1,0,0,0,0,0,0,0,0,0Zm0,.13s0,.05,0,.05a0,0,0,0,1,0,0s0,0,0,0Zm.27,3.14s0,0,0,0,0,0,0,0,0,0,0,0Zm.4-.27s0,0,0,0,0,0,0,0Zm0-3.42,0,0s0,0,0-.05Zm.44,2.65s0-.05,0-.05,0-.06,0-.05,0,0,0,0,0,0,0,0S115.56,12.79,115.6,12.81Zm.17-.27s0,0,0,0a0,0,0,0,0,0,0h-.05a0,0,0,0,0,0,0,.07.07,0,0,1,0,.06s0,0,0,0,0,0,0,0,0,0,0,0S115.75,12.55,115.77,12.54Zm.08-.07s0,0,0,0,0,0,0,0,0,0,0,0,0,0,0,0h0Zm0-.08s0,0,0,0h-.05v.05S115.82,12.38,115.85,12.39Zm.08-.12s0,0,0,0,0,0,0,0,0,0-.05,0S115.9,12.26,115.92,12.27Zm.44-.56s0,0,0,0,0,0,0,0Zm.05-.14a0,0,0,0,1,0,0s0,0,0,0a0,0,0,0,1,0,0A0,0,0,0,0,116.41,11.58Zm.17,2.6h-.05s0,0,.05,0Zm.05-.94a.09.09,0,0,0,0-.1.08.08,0,0,1,.05-.1s0,0,0,0a0,0,0,0,0,0-.05s0,0,0,0,0,0,0,0,0,.13-.05.15Zm.15-.71v0h0v.05h0v0h0v-.05Zm.07-.07a0,0,0,0,1,0-.07.1.1,0,0,0,0-.1h0s0,.06,0,.08a.17.17,0,0,0,0,.12s0,0,0,0S116.82,12.44,116.85,12.45Zm.15-1.82c0,.06,0,.07.05,0a0,0,0,0,0-.05-.05Zm.05,1.27s0,0,0-.05,0,0,0,0Zm0,0h0v0h0Zm.07-1.21a.3.3,0,0,0,.1-.13s-.05,0-.06,0,0,0,0,0a.05.05,0,0,1,0,.06A.06.06,0,0,0,117.1,10.68Zm1.5,3.73a0,0,0,0,0,.06,0s0,0,0,0l0,0S118.59,14.39,118.6,14.41Zm.08-.07s0,0,0,0,0,0,0,0,0,0,0,0S118.69,14.32,118.69,14.34Zm.08-.1,0,0s0,0,0,0h.05Z"/><path class="cls-1" d="M125.67,9.55a2.07,2.07,0,0,0,.06.2s-.06.07-.24.08a.63.63,0,0,1-.29-.07,3.15,3.15,0,0,0-1,.55,6.91,6.91,0,0,0-.7.7,9.42,9.42,0,0,1-.64.77,6.62,6.62,0,0,0-.62.78s0,0,0,0,0,0,0,0a4,4,0,0,0-.54.94,10.26,10.26,0,0,1-.46,1s0,0,.05,0a.61.61,0,0,0-.16.26c0,.1-.05.2-.08.31a.5.5,0,0,0-.13.17s0,0,0,0a.12.12,0,0,0,0-.05s0,0,0,0a0,0,0,0,1,0,0s0,0,0,0h0a1.89,1.89,0,0,1-.14.39l-.18.37a2.66,2.66,0,0,0-.14.4,1.14,1.14,0,0,0,0,.46.18.18,0,0,1-.15.05.51.51,0,0,0-.19,0s0,0-.08,0-.07,0-.08,0-.06,0-.11,0l-.16-.09-.2-.13a.36.36,0,0,1-.13-.35,16.94,16.94,0,0,1,.35-2s0,0,0,0a.38.38,0,0,0,.05-.13c0-.06,0-.09,0-.1q.17-.89.39-1.75t.46-1.7s0,0,0,0,0,0,0,0a.05.05,0,0,0,0-.05.15.15,0,0,1,0-.07l-.1,0a.11.11,0,0,1,0-.09.2.2,0,0,1,.07-.07l.08-.05a.15.15,0,0,0,.05-.08h.13s0,0,0,0,0,0,0,0a.24.24,0,0,1,.23-.05,1,1,0,0,0,.24,0,0,0,0,0,0,0,0,0,0,0,0,1,0,0,.16.16,0,0,1,.16.06.14.14,0,0,1,0,.13.64.64,0,0,1,.11.38,2,2,0,0,1-.06.4q-.05.2-.11.4a1.88,1.88,0,0,0-.08.38l0,.06a.13.13,0,0,0,0,.08,4.14,4.14,0,0,1,.42-.57,4.85,4.85,0,0,0,.42-.56,1.12,1.12,0,0,0,.31-.35.92.92,0,0,1,.33-.33h0s0,0,0,0h.07s0,0,0,0h0s0,0,0,0,0,0,0,0,.05,0,.05,0a.14.14,0,0,1,0-.06l0,0a1.35,1.35,0,0,1,.4-.4,2.83,2.83,0,0,1,.5-.26.4.4,0,0,1,.19-.13l.23-.09h.14a.85.85,0,0,1,.47,0,3.21,3.21,0,0,0,.52.13l.07.08A.18.18,0,0,0,125.67,9.55Zm-5.89,5.68s0,0,0-.06,0,0,0,0,0,0,0,.06S119.76,15.26,119.78,15.24Zm.3-.57,0,0h0v0Zm0-.17s0-.06,0-.05,0,0,0-.06,0,0,0,0,0,0,0,.09S120.09,14.51,120.11,14.5Zm0-1.25a0,0,0,0,0,0,0s0,0,0,0a0,0,0,0,1,0,0Zm.05-.27,0,0v0h0Zm0,.91v0h0v0Zm0-1s0,0,0-.05,0,0,0,0Zm.05-.08a0,0,0,0,1,0-.06s0,0,0,0,0,0,0,.05S120.24,12.78,120.27,12.79Zm0-.12v0h0v0Zm.66,1.5a.41.41,0,0,0,.22-.27q.05-.19.12-.37a.14.14,0,0,1-.13.05c-.06,0-.09,0-.08.08h0s0,0,0,.07,0,0,0,0,0,0,0,0a.28.28,0,0,1,0,.2A.33.33,0,0,0,120.91,14.17Zm.19-.52,0,0ZM123.93,10a.09.09,0,0,1,.08-.1.12.12,0,0,0,.1-.1,2.42,2.42,0,0,0-.44.29,4.15,4.15,0,0,0-.35.35l-.32.38a2.36,2.36,0,0,1-.35.36s0,.06,0,.07l-.16.15a.18.18,0,0,0,0,.19,1.48,1.48,0,0,0-.34.3,3,3,0,0,0-.24.35l-.21.37a2.41,2.41,0,0,1-.24.35,1.22,1.22,0,0,1-.14.31l-.19.28a.44.44,0,0,0,.25-.19,1.33,1.33,0,0,1,.17-.24s0,0,0,0,0,0,0,0,.06,0,0-.08l0,0,0,0a0,0,0,0,1,0,0l.61-.94h.05l.3-.43.32-.43a3.64,3.64,0,0,0,.5-.57A1.77,1.77,0,0,1,123.93,10Zm-1,.71a2.8,2.8,0,0,1,.65-.72,7.82,7.82,0,0,1,.89-.6.07.07,0,0,0-.08,0,.09.09,0,0,1-.08,0h0a.35.35,0,0,1-.19.12l-.21.07s-.05.07-.12.08,0,0,0,0,0,0,0,0l-.37.25a.66.66,0,0,1-.17.22l-.22.17s0,0,0,0,0,0,0,0a.61.61,0,0,0-.24.23.49.49,0,0,1-.24.21v0s-.06,0-.06,0,0,0,0,.06a.16.16,0,0,1,0,.1h-.08s0,.07,0,.08,0,0,0,0-.05,0-.06,0,0,0-.06,0a.07.07,0,0,0,0,.05.08.08,0,0,0-.07,0l-.05,0s0,.08,0,.09,0,0,0,.09l-.05,0-.05,0s0,0,0,0h0a.07.07,0,0,0,0,.05c-.08,0-.12.06-.13.11s0,.09-.13.11a.09.09,0,0,1-.07.1s0,0,0,0,0,0,0,0a.26.26,0,0,1-.1.07.07.07,0,0,1,0,.08s0,0,0,.07l-.05,0-.05,0a.18.18,0,0,1,0,.09l-.06.08s0,0,0,0l-.19.31a.49.49,0,0,0-.07.35.09.09,0,0,0-.07.11l0,.14a.18.18,0,0,0,.09-.14.14.14,0,0,1,.09-.13,2.14,2.14,0,0,1,.42-.76q.1-.19.23-.37a1.31,1.31,0,0,1,.31-.32,3,3,0,0,1,.3-.44Q122.79,10.9,123,10.72Zm-.94.59s0,0,0,0a0,0,0,0,0,0,0s0,0,0,0,0,0,0,0S122,11.3,122,11.31Zm.17-.15s-.05,0-.05,0a.14.14,0,0,1,0,.06A.19.19,0,0,0,122.2,11.16Zm.07-.08,0,0,0,0h0Zm.17-.17c-.06,0-.07,0-.05.05s0,0,0,0A.05.05,0,0,1,122.43,10.9Zm.54-.64-.05,0S123,10.28,123,10.26Zm1.52-.88.05,0a0,0,0,0,1,0,0h-.05A0,0,0,0,0,124.49,9.38Z"/><path class="cls-1" d="M132.15,12.94a.21.21,0,0,0-.06.13.3.3,0,0,1-.06.15s0,0,0,0,0,0,0,0a.64.64,0,0,1-.14.31,1,1,0,0,0-.18.3.15.15,0,0,0-.1.12.26.26,0,0,1-.1.15s0,0,.05,0a.34.34,0,0,1-.09.13l-.13.13h0s0,0,0,0,0,0,0,.05,0,0,0,.07l-.07-.05s0,0,0,0,0,0,0,0h0q0,.12-.1.1l-.06.1a.13.13,0,0,1-.09.07.16.16,0,0,1,0,.14s-.06.06-.08,0,0,0,0,.05,0,0,0,0l0,0a.92.92,0,0,1-.27.24l-.3.19-.32.1a.86.86,0,0,1-.37.05.33.33,0,0,1-.21.07.4.4,0,0,0-.23.07,1.45,1.45,0,0,1-.44-.06,1.55,1.55,0,0,1-.34-.15l-.3-.21-.34-.25-.37-.59a6.6,6.6,0,0,0-.52.48,2.67,2.67,0,0,1-.46.39,1.64,1.64,0,0,1-.56.23,2.3,2.3,0,0,1-.78,0,2.3,2.3,0,0,1-.47-.43,1.48,1.48,0,0,1-.29-.67s0,0,0,0,0,0,0,0a.5.5,0,0,1,0-.08s0-.05,0-.05a.23.23,0,0,0,0-.14.18.18,0,0,0,0-.13l.08,0a.14.14,0,0,1,0-.08l0-.11q0-.13.08-.27l.09-.27a.26.26,0,0,1,0,.23.29.29,0,0,0,0,.24s0,0,0,0,0,0,0,0v.05q0-.08.07,0s0,0,0-.12,0,0,0,0l.1-.27a2.19,2.19,0,0,0,.08-.29s.05,0,.05,0a.23.23,0,0,0,.06-.19c0-.08,0-.12.08-.13a.13.13,0,0,0,0-.08s0,0,0,0,0,0,0,0,0,0,0,0h0s0,0,0,0,0,0,0,0a.13.13,0,0,0,.09-.1,1.29,1.29,0,0,0,0-.15l.07,0a0,0,0,0,0,0,0s0,0,0,0l.08-.07a0,0,0,0,1,0,0s0,0,0,0h.07s0,0,0-.05,0,0,0-.05h.08a.08.08,0,0,0,0,0,.07.07,0,0,1,0,0l.08-.06s0,0,0,0,0,0,0,0,0,0,.06,0,0,0,0-.07a.56.56,0,0,0,.22-.16,1.35,1.35,0,0,0,.19-.24c.14-.12.26-.25.39-.39l.37-.4a.3.3,0,0,0,.2-.12,1.18,1.18,0,0,0-.29.17,1.71,1.71,0,0,0-.23.22c0-.06,0-.1.07-.12s.1-.06.08-.12l-.08.06a.14.14,0,0,0-.06.08.87.87,0,0,0-.35.26,2.64,2.64,0,0,1-.3.31s0,0,0,0,0,0,0,0,0,0,0,0,0,0,0,0a.07.07,0,0,0,0,0,0,0,0,0,1,0,0l.08,0a.05.05,0,0,1,0-.06s0,0,0,0a.08.08,0,0,1,.05,0s0,0,0,0A.72.72,0,0,0,126,11a2.14,2.14,0,0,1,.21-.29,1.62,1.62,0,0,1,.31-.27,2.92,2.92,0,0,0,.33-.25s.07,0,.08,0a1.1,1.1,0,0,1,.3-.14,3.74,3.74,0,0,1,.46-.13l.46-.08.28,0,.05-.1a.07.07,0,0,1,0-.05l.05-.05,0-.08a.32.32,0,0,0,0-.1.11.11,0,0,1,0-.08s0,0,0-.05,0,0,0,0l.05-.07s0-.05,0-.08h.05s0-.05,0-.05,0,0,.05,0,0-.08,0-.09,0,0,0-.09a0,0,0,0,0,0,0s0,0,0,0,0-.06,0-.07,0,0,0-.08,0,0,.07,0,0,0,0,0a.1.1,0,0,1,0-.08l.06-.06s0,0,0,0,0,0,0,0,0,0,0,0h.05s0,0,0-.06,0,0,0,0a.26.26,0,0,0,.14-.15.66.66,0,0,0,0-.2c.07,0,.09,0,.08-.08a.09.09,0,0,1,0-.12s0,0,0,0,0,0,0,0l0,0,0,0s0,0,0,0,0,0,0,0h.05a1.58,1.58,0,0,0,0-.18.19.19,0,0,1,.08-.19v.05l.05-.07v0s0,0,0-.05h0s.06,0,.07,0,0-.05,0-.05,0,0,0,0,.05,0,.05-.07l.07,0s0,0,0-.1h0l0,0s0,0,0,0,0,0,0,0l0,0,.05-.17v0s0,0,0,0,0,0,0,0h.07v0a.11.11,0,0,1,0-.13.22.22,0,0,0,0-.13s0,0,0,0l.17-.46v0h0l0-.07a.07.07,0,0,1,0-.05l0,0,0,0a1.22,1.22,0,0,1,.19-.15.27.27,0,0,0,.12-.2s0,0,0,0,0,0,0,0a.27.27,0,0,1,0-.07s0,0,0,0,0,0,0,0,0,0,0,0l.19-.3a1.66,1.66,0,0,1,.2-.29,1.87,1.87,0,0,1,.24-.37,1.34,1.34,0,0,0,.23-.39l.05,0,0-.05s0,0,0-.07-.06,0,0,.05l-.07-.13a.61.61,0,0,0,.2-.19.62.62,0,0,1,.2-.19.18.18,0,0,0,.08.07,0,0,0,0,0,0-.05l-.07,0a1.22,1.22,0,0,1,.73.05,1,1,0,0,1,.51.44s0,0,0,0a4.31,4.31,0,0,1,0,.81,7.68,7.68,0,0,1-.13.76,2.57,2.57,0,0,0-.13.43,1,1,0,0,1-.19.4.2.2,0,0,1,0,.13l-.07.08V6.5a.55.55,0,0,0-.15.35h-.08s0,0,0,0,0,0,0,0,0,0,0,0,0,0,0,0a.13.13,0,0,1,0,.13.11.11,0,0,0,0,.14.27.27,0,0,0-.13.2.9.9,0,0,1-.06.25l0,0-.17.28a1,1,0,0,0-.12.33s.05,0,0,0,0,0,0,.08-.12.11-.1.24l-.29.55q-.14.26-.25.55a.13.13,0,0,0-.09.11.21.21,0,0,1-.06.13.53.53,0,0,0-.18.21,2.1,2.1,0,0,0-.09.23l-.05,0-.05,0s0,0,0,0,0,0,0,0h-.05a.5.5,0,0,1-.14.29.5.5,0,0,0-.14.29s-.06,0-.06.05,0,.05-.06.05a.15.15,0,0,0,0,.07l-.22.28a1.46,1.46,0,0,1-.24.26.8.8,0,0,1-.17.32l-.23.26-.21.27a.66.66,0,0,0-.12.33h0a.58.58,0,0,0,0,.34h0a1.93,1.93,0,0,1,0,.42,1.9,1.9,0,0,0,0,.42c0-.06,0-.06-.07,0s0,.06.05,0a.37.37,0,0,0,0,.09s0,.06,0,.06,0,0,0,0,0,0,0,0a0,0,0,0,1,0,0,0,0,0,0,0,0,0s0,0,0,.05,0,0,0,0a1,1,0,0,1,.09.32,1,1,0,0,0,.09.32.29.29,0,0,0,.16,0,.17.17,0,0,1,.14,0s0,0,0,0,0,0,0,0a.07.07,0,0,0,0,.05.05.05,0,0,1,0-.05s0,0,.05,0a3.21,3.21,0,0,0,1-.64q.42-.41.86-.76s0-.08,0-.09l.13,0-.2.27h0a.1.1,0,0,1,0,.08.08.08,0,0,0,0,.06s0,0,0-.06a.06.06,0,0,0,0-.08,3,3,0,0,1-.32.34s0,.07-.05.07a.13.13,0,0,1,0,.12l.07,0a.07.07,0,0,0,.05-.07.28.28,0,0,0,.19-.16.6.6,0,0,1,.16-.21s0,0,0,0a.18.18,0,0,1,.1-.11.14.14,0,0,0,.08-.11.16.16,0,0,1,.12,0l0-.07a.09.09,0,0,0,0-.08.25.25,0,0,0,.16-.09l.1-.15a.84.84,0,0,1,.1-.14.26.26,0,0,1,.16-.08c0-.07.08-.11.19-.12s0,0,0-.05,0,0,0,.05Zm-7.68,1a.06.06,0,0,0,0-.07h0s0,0,0,0S124.46,13.91,124.47,13.92Zm.15-.73a.08.08,0,0,1,0-.1.16.16,0,0,0,0-.1.11.11,0,0,1,0,.11A.29.29,0,0,1,124.63,13.2Zm.12-.35s0,0,0,0,0,0,0,0,0,0,0,0S124.76,12.86,124.74,12.84Zm.13-.22a.27.27,0,0,1-.08.15.1.1,0,0,0,0-.09S124.83,12.62,124.88,12.62Zm0,0v0h0v0Zm.17-.37a.28.28,0,0,1,0,.15l-.08.13a.08.08,0,0,1,0-.06s0,0,0-.09.13-.23.19-.35a1.52,1.52,0,0,1,.21-.32.16.16,0,0,0,.14-.11.12.12,0,0,1,.12-.09.52.52,0,0,0-.08.11.23.23,0,0,1-.12.09s0,.07,0,.08,0,0,0,.09a.29.29,0,0,0-.14.14,1.29,1.29,0,0,0-.09.21H125ZM128.08,11l0-.05a.07.07,0,0,1,0-.05s.05,0,.05,0,0,0,0-.07,0,0,0,0,0,0,0,0,0,0,0,0a0,0,0,0,1,0,0l-.29.18-.29.19-.05,0-.05,0s0,0,0,0,0,0,0,0a.68.68,0,0,0-.38.3,3.5,3.5,0,0,1-.24.39.79.79,0,0,0-.27.34.84.84,0,0,1-.25.34.09.09,0,0,1-.08.1.42.42,0,0,0,0,.12s0,.06-.09.08a.19.19,0,0,1,0,.06s0,0,0,0l-.07,0-.07.2s0,0,0,0,0,0,0,0a1,1,0,0,0-.14.18.77.77,0,0,0-.09.23s.07,0,.07,0h-.06l0,0a.06.06,0,0,1,0,.08s0,.05,0,.11-.06,0-.05.06a.08.08,0,0,1,0,.09h.07a2,2,0,0,0-.06.45,2.8,2.8,0,0,0,0,.5.55.55,0,0,0,.42-.19.82.82,0,0,1,.35-.25,2,2,0,0,1,.32-.37l.37-.34a.07.07,0,0,1,0-.05s-.07,0-.07,0,0,0-.05.06l0-.06s0,0,0-.08.07,0,.08,0,0,.06,0,0l.29-.38.3-.38s0,0,0-.05,0,0,0,0,0,0,0,0a1,1,0,0,1,.09-.44q.09-.2.18-.44a.41.41,0,0,0,0-.08s0,0,0,0,0,0,0-.07,0,0,0-.07.06,0,0,0,0-.05,0-.05a.1.1,0,0,1,0-.11s0-.07,0-.09.06,0,.05-.05h0l0,0a.22.22,0,0,0,0-.16.12.12,0,0,1,.05-.13.27.27,0,0,0,0-.12h.05a0,0,0,0,0,0-.05s0,0,0,0l0,0Zm-2.09.29h-.05v0l.05,0Zm.15-.17h0v0h0Zm.47,3,.06-.06.08-.06s0,.07,0,.08Zm.1.32a0,0,0,0,0,0,0,.06.06,0,0,1,0,.05l.11-.08a.09.09,0,0,0,0-.12.15.15,0,0,0,0,.07S126.76,14.38,126.72,14.39Zm0-.47s0,0,0,0,0,0,0,0A0,0,0,0,1,126.75,13.92Zm.47.05a.23.23,0,0,1,.11-.16c.06,0,.08-.1,0-.19a2.57,2.57,0,0,1-.24.34,2,2,0,0,0-.23.32l.15-.16A.85.85,0,0,1,127.22,14Zm.08-.74a0,0,0,0,1,0,0l0,0v0Zm.14-.15s0,0,0,0a0,0,0,0,1-.05,0s0,0,0,0S127.45,13.1,127.44,13.08Zm.46-1.64a0,0,0,0,1,0,0s0,0,0,0A0,0,0,0,1,127.9,11.44Zm.81-2.75-.05,0a0,0,0,0,1,0,0,0,0,0,0,0,0,0h0A0,0,0,0,1,128.71,8.69Zm0,.24s0,0,0,0,0,0,0,0a0,0,0,0,1,0,0S128.69,8.94,128.67,8.93Zm.27-.64,0,0v0h0Zm1.6,1.37a3.14,3.14,0,0,1,.23-.61,4.51,4.51,0,0,0,.24-.59.18.18,0,0,0-.08.17.18.18,0,0,0-.11.1l-.06.15s0,0,0,0,0,0,0,0,0,0,0,.05,0,0,0,0,0,0,0,0,0,0,0,0a.27.27,0,0,0,0-.13.2.2,0,0,1,0-.14.16.16,0,0,0-.07.08.16.16,0,0,1-.08.08s0,.08-.05.13-.06.09,0,.13a.15.15,0,0,0-.1.1.21.21,0,0,1-.05.1q.05.12-.08.19l-.17.33a1.22,1.22,0,0,1-.22.3l-.24.38a1.93,1.93,0,0,1-.29.36s0,0,0,0,0,0,0,0a.37.37,0,0,0-.12.15.3.3,0,0,1-.1.13.27.27,0,0,0,0,.07.29.29,0,0,1,0,.07l0,0s0,0,0,0,0,0,0,0,0,0,0,.08a.21.21,0,0,0,.12-.13c0-.07.06-.1.12-.1s-.06.07-.05.08.08,0,.08-.05,0-.06.07-.07,0,0,0,0,0,0,0,0l0,0s0,0,.07-.05a.07.07,0,0,0,0,0s0,0,0,0a.5.5,0,0,0,.18-.16l.14-.19s0,0,0,0l.05-.06.05-.06s0-.07,0-.07a.18.18,0,0,0,.13-.12.31.31,0,0,1,.13-.15.46.46,0,0,1,0-.13s0-.06.1-.06,0,0,0,0,0,0,0,0l.07-.05a.42.42,0,0,1,.08-.21Zm-1.27-2.48s0,0,0,0,0,0,0,0,0,0,0,0S129.29,7.2,129.28,7.17Zm0,.19s0,0,.05,0S129.32,7.36,129.28,7.36Zm1.08,1.59a0,0,0,0,0,.05-.05l-.05,0a4.1,4.1,0,0,1,.43-.89,2.86,2.86,0,0,0,.38-.93q.24-.54.48-1.06a6.32,6.32,0,0,0,.4-1.11,0,0,0,0,0,0,0,.1.1,0,0,0,0-.1.1.1,0,0,1,0-.1.72.72,0,0,1,0-.3.66.66,0,0,0,0-.29l-.07.05a0,0,0,0,0,0,.05.7.7,0,0,0-.27.3,1.69,1.69,0,0,1-.22.35,2.74,2.74,0,0,1-.29.68,4.26,4.26,0,0,0-.32.67.21.21,0,0,0-.06.13.1.1,0,0,1-.09.09.1.1,0,0,1,0,.12s0,.06,0,.12-.06,0-.05,0,0,0-.05,0a.23.23,0,0,1,0,.24.26.26,0,0,0-.06.2.23.23,0,0,0,.05-.11c0-.05,0-.07.07-.06a.31.31,0,0,0-.08.17.09.09,0,0,1-.12.08s0,0,0,.05a.05.05,0,0,0,0,0,2.14,2.14,0,0,0-.13.22.75.75,0,0,0-.08.24s0,0,.07,0l-.56,1.39q-.27.68-.49,1.44a.13.13,0,0,0,.07,0l.05,0s0,0,0,0l.06,0s0,0,0,0,0,0,0,0a.15.15,0,0,0,0-.07s0,0,0,0a.15.15,0,0,0,0-.07.08.08,0,0,1,0-.05s0,0,0,0l.19-.27s0,0,0,0,0,0,0,0a.21.21,0,0,0,.05-.09s0-.05.08,0l0,0s0,0,0-.06a.11.11,0,0,0,.08,0,0,0,0,0,0,0,0s0,0,0,0,.08,0,.07,0,0,0,0,0,0-.08.05-.08,0,0,0,0l0,0s0,0,0,0,0,0,0,0l0,0a.12.12,0,0,0,0-.05s0,0,0,0,0,0,0,0l0,0a.1.1,0,0,0,.07-.09s0-.06.08-.06,0-.08,0-.17a.35.35,0,0,1,.13-.19Zm-.94-1.81s0,0,0,0,0,0,0,0,0,0,0,0S129.43,7.16,129.42,7.14Zm0-.1,0,0h0V7Zm0,.1s0,0,0,0v0Zm.14,3.81s0,0,0,0,0,0,0,0h0v0Zm.1,3.78s0,0,0-.05h0s0,0,0,0S129.67,14.72,129.67,14.73Zm.15-4.74s0,0,0,0,0,0,0,0,0,.06,0,.07Zm0-3.73h0a0,0,0,0,0,0,0Zm0,3.73v0s0,0,0,0a0,0,0,0,1,0,0Zm.29-4.5a.08.08,0,0,0-.06.07.08.08,0,0,1-.06.07c0-.06,0-.08.07-.08s0,0,0-.08l.08-.08,0,0S130.11,5.45,130.13,5.49Zm0,.78s0,0,0,0,0,0,0,0Zm.07-1s0,0,0,0,0,0,0,0A0,0,0,0,0,130.19,5.25Zm.08-.05s-.05,0-.05,0a.06.06,0,0,1,0-.07l.06-.05s0,0,0,0S130.25,5.17,130.28,5.2Zm0,.66a.06.06,0,0,0,0,.07.09.09,0,0,1,0,.08A.21.21,0,0,0,130.31,5.86Zm0,0a0,0,0,0,0,0,0s0,0,.05,0a.07.07,0,0,1,0,0s0,0,0,0a.05.05,0,0,0-.06.05.69.69,0,0,1,0,.1Zm0,8.69s0,.05,0,.05v0S130.3,14.55,130.29,14.55Zm0-9.48s0,0,0,0,0,0,0,0V5s0,0,0,0,0,0,0,0a0,0,0,0,1-.05,0S130.32,5.07,130.33,5.07ZM130.38,9l0,0-.05,0S130.36,9,130.38,9Zm.05-4.17s0,0,0,0,0,0,0,0-.06,0-.1.07a.52.52,0,0,1,.14-.22,0,0,0,0,0,0,0,0,0,0,0,1,0,0h0Zm-.07,9.63s.06,0,.12-.05h-.05Zm.07-6.93s0,0,0,0,0,0,0-.05,0,0,0,0A.1.1,0,0,0,130.43,7.55Zm.05-2.09c0,.06,0,.1-.07.12a0,0,0,0,1,0,0h0s0-.05,0-.06l.07,0a.08.08,0,0,1,0-.06s0,0,0,0,0,0,0,0S130.49,5.43,130.48,5.45Zm0,9,.05-.06.05,0a0,0,0,0,1,0,0l-.06.06A.07.07,0,0,0,130.48,14.43Zm0-7.12,0,0Zm.08,6.65h0v0h0Zm.08-9.4s0,0-.05,0a.14.14,0,0,1,0-.08.11.11,0,0,0,0-.07.15.15,0,0,0,.08-.08s0,0,0,0,0,0,0,.05-.05,0-.05,0v.08h-.07A0,0,0,0,0,130.66,4.56Zm0,9.35s0,0,0,0,0,0,0,0,0,0,0,0S130.69,13.92,130.66,13.9Zm.05-7.05s0,.07,0,.07a.07.07,0,0,1,0-.05Zm.05,1.74s0,0,0,0,0,0,0,0,0,0,0,0S130.74,8.57,130.77,8.59Zm0-4.17s0,0,0,0,0,0,0,0Zm.05-.12s0,0,0,0V4.27A0,0,0,0,0,130.82,4.31Zm0,4.22a.07.07,0,0,0,.07,0s0,0,0-.05S130.78,8.49,130.78,8.52Zm0-4.08a.07.07,0,0,1,0-.05h0v.05Zm0-.19v0h.05v0Zm.1.49s0,0,0,0,0,0,0,0a0,0,0,0,1,0,0S130.93,4.76,130.92,4.75Zm0,3.59s.06,0,.05,0,0,0,.07,0a.11.11,0,0,1,0-.08.1.1,0,0,0,0-.08s0,0,0,0,0,0,0,0a.1.1,0,0,0,0-.07.05.05,0,0,1,0-.05s0,0,0,0,0,0,0,0,0,0,0,0,0,0,0,0a.14.14,0,0,1,.05-.08s0,0-.05,0,0,0,0,0a.38.38,0,0,0,.05-.12.17.17,0,0,1,.07-.1,0,0,0,0,0,0,0s0-.05,0-.05,0,0,0,0l0,0a0,0,0,0,0,0,.05s0,0,0,0,0,0,0-.07,0-.06,0-.07a2.25,2.25,0,0,1-.2.35A.93.93,0,0,0,130.92,8.34Zm.14-3.76c-.06,0-.1,0-.12.12l.06-.06Zm.46,3.12a0,0,0,0,0,0,0,0,0,0,0,1,0,0l0-.09a.15.15,0,0,1,0-.09l0,0q-.12.25-.25.48a2.32,2.32,0,0,0-.22.5.05.05,0,0,0,0-.05s0,0,.05,0l.13-.26a.61.61,0,0,1,.19-.21.1.1,0,0,1,0-.11S131.53,7.72,131.51,7.7Zm-.25-3.46-.09.1a.3.3,0,0,0-.06.14l.1-.13C131.25,4.3,131.27,4.26,131.26,4.24Zm0-.35s-.07,0-.07-.08,0,0,0,0,0,0,0,0A.08.08,0,0,0,131.22,3.88Zm0,9.48s0,0,0,0,0,0,0,0Zm.07-9.14V4.17h0v0Zm0,3.31s0,0,0-.05S131.29,7.52,131.31,7.53Zm0,5.79s0,0,0,0,0-.06,0-.08.12-.06.1-.12h.05a.51.51,0,0,1-.08.14Zm.22-6.14a.15.15,0,0,1,0-.13.12.12,0,0,0,0-.11.31.31,0,0,0-.06.13l0,.15Zm0,5.84s0,0-.07,0S131.53,13,131.58,13Zm0-9.21s0,0,0,0,0,0,0,0l.08,0s0,0,0-.06l0,0S131.56,3.81,131.54,3.8Zm.12,3.05a.44.44,0,0,1,.2-.35h-.07s0,0,0,0,0,0,0,0h-.05a.52.52,0,0,1-.17.29s0,.07,0,.08,0,0,0,.07,0,0,0,0S131.64,6.85,131.66,6.85Zm.71-1.21a.17.17,0,0,1,0-.14.11.11,0,0,0,0-.12q-.13.37-.29.73t-.32.69a1.55,1.55,0,0,0,.3-.56A2.17,2.17,0,0,1,132.37,5.64Zm-.47,7.27a.38.38,0,0,1-.1.12s0,0,0,0,0,0,0,0,0,0,0,0S131.87,12.91,131.9,12.91ZM132,6.13s0,0,0,0a.25.25,0,0,0,.08-.11.14.14,0,0,0,0-.11l-.16.25a.81.81,0,0,0-.11.29h.05s0-.05,0-.05a.14.14,0,0,1,.05-.11A.1.1,0,0,0,132,6.13Zm0,6.7a1.45,1.45,0,0,1,.22-.39l.27-.34-.21.4A1.13,1.13,0,0,1,131.95,12.83Zm.37-7.64a0,0,0,0,1,0,0s0,0,0,0,0,0,0,0,0,0,0,0a.4.4,0,0,0-.13.19.69.69,0,0,0,0,.24s-.05,0-.06.05,0,.07,0,.08l0,0V5.71a.18.18,0,0,0,.11-.13,1.48,1.48,0,0,1,.06-.18,0,0,0,0,1,0,0s.06,0,.05,0,0-.06,0-.06a.13.13,0,0,1,0-.08.08.08,0,0,0,0-.06s0,0,0,0,0,0,0,0l-.07,0s0,0,0,0S132.32,5.16,132.32,5.18Zm-.15,7h0v0h0Zm.12-.67,0,0v0h0Zm.05.39s0,0,0,0,0,0,0,0Zm.05-.13s0,0,0,0,0,0,0,0,0,.07,0,.08a.16.16,0,0,0-.08.1s0,0,0-.06S132.4,11.77,132.39,11.75Zm0-6.68s0,0,0,0,0,0,0,0Zm0-.17s0,0,0-.08,0-.05,0,0,0,.06,0,.07S132.36,4.87,132.39,4.9Zm0-.2v0h0v0Zm.05,7.12a0,0,0,0,1,0,0s0,0,0,0A0,0,0,0,1,132.42,11.81Zm.05-.22a0,0,0,0,0,0,0,0,0,0,0,1,0,0s0,0,0,.07l-.06.07s0,0,0,0S132.48,11.62,132.47,11.59Z"/><path class="cls-1" d="M6.31,29.46l0,1.44a4,4,0,0,1-2,.48A3.22,3.22,0,0,1,1,27.94a3.27,3.27,0,0,1,3.34-3.44A3.68,3.68,0,0,1,6.2,25l0,1.44H5.68l-.24-1.26a2.2,2.2,0,0,0-1-.24c-1.35,0-2.43,1-2.43,3s1,3,2.4,3a2.6,2.6,0,0,0,1.13-.24l.24-1.25Z"/><path class="cls-1" d="M13.2,27.94a3.14,3.14,0,0,1-3,3.44c-1.55,0-3-1.2-3-3.44a3.16,3.16,0,0,1,3-3.44A3.12,3.12,0,0,1,13.2,27.94Zm-3,3c1.36,0,2-1.46,2-3s-.6-3-2-3-2,1.46-2,3S8.84,31,10.21,31Z"/><path class="cls-1" d="M15.71,28.61c0,.73,0,1.44,0,2.18l.93.11v.34H13.88V30.9l.92-.1c0-.86,0-1.72,0-2.6v-.48c0-.88,0-1.75,0-2.61l-.92-.1v-.34h2.64c1.65,0,2.47.78,2.47,1.95s-.77,2-2.75,2Zm0-3.56c0,.87,0,1.77,0,2.67v.5h.63c1.23,0,1.72-.66,1.72-1.61S17.53,25,16.36,25Z"/><path class="cls-1" d="M22.6,28.63c0,.84,0,1.51,0,2.15l1,.11v.34h-3V30.9l1-.11c0-.63,0-1.28,0-2.12l-1.77-3.59L19.2,25v-.34h2.73V25l-1,.1,1.44,3.1,1.45-3.08L22.94,25v-.34h2.23V25l-.85.12Z"/><path class="cls-1" d="M31.52,30.9v.34a2.41,2.41,0,0,1-.74.1c-.61,0-.89-.17-1-.63l-.4-1.56c-.2-.8-.52-1-1.34-1h-.52c0,.92,0,1.78,0,2.62l.92.11v.34H25.69V30.9l.92-.1c0-.86,0-1.72,0-2.6v-.48c0-.88,0-1.75,0-2.61l-.92-.1v-.34h2.75c1.49,0,2.37.64,2.37,1.72,0,.77-.56,1.46-1.69,1.66a1.49,1.49,0,0,1,1.18,1.24l.46,1.54Zm-3.2-3.1a1.38,1.38,0,0,0,1.57-1.42c0-.84-.47-1.33-1.5-1.33h-.85c0,.87,0,1.73,0,2.75Z"/><path class="cls-1" d="M33.95,25.1c0,.85,0,1.73,0,2.61v.48c0,.86,0,1.73,0,2.59l.92.11v.34H32.1V30.9l.92-.1c0-.86,0-1.72,0-2.6v-.48c0-.88,0-1.75,0-2.61L32.1,25v-.34h2.76V25Z"/><path class="cls-1" d="M41.63,28.45,41,28.5c0,.6,0,1.22,0,1.87v.44a4.4,4.4,0,0,1-2.14.57,3.23,3.23,0,0,1-3.32-3.44,3.26,3.26,0,0,1,3.35-3.44,3.55,3.55,0,0,1,2,.48l0,1.45h-.53l-.24-1.22A2.14,2.14,0,0,0,39,24.94c-1.41,0-2.43,1.09-2.43,3s1,3,2.46,3a3.09,3.09,0,0,0,1.1-.2v-.39c0-.61,0-1.23,0-1.84l-1-.08V28.1h2.56Z"/><path class="cls-1" d="M48.09,25.1c0,.85,0,1.73,0,2.61v.48c0,.86,0,1.73,0,2.6l.92.1v.34H46.25V30.9l.91-.1c0-.84,0-1.71,0-2.74H44c0,1,0,1.88,0,2.74l.91.1v.34H42.15V30.9l.92-.1c0-.86,0-1.72,0-2.6v-.48c0-.88,0-1.75,0-2.61l-.92-.1v-.34H44.9V25l-.91.1c0,.84,0,1.7,0,2.57h3.2c0-.86,0-1.72,0-2.57l-.91-.1v-.34H49V25Z"/><path class="cls-1" d="M52.89,25.09c0,.86,0,1.74,0,2.62v.48c0,.86,0,1.73,0,2.59l1,.11v.34h-3V30.9l1-.11c0-.85,0-1.71,0-2.59v-.48c0-.88,0-1.76,0-2.62H50.41l-.27,1.32h-.49l.08-1.75h5.39l.06,1.75h-.48l-.28-1.32Z"/><path class="cls-1" d="M58.26,33l-.21.16a6.21,6.21,0,0,1,0-9.23l.21.17a7.29,7.29,0,0,0,0,8.9Z"/><path class="cls-1" d="M64.13,29.46l0,1.44a4,4,0,0,1-2,.48,3.22,3.22,0,0,1-3.34-3.44,3.27,3.27,0,0,1,3.34-3.44A3.68,3.68,0,0,1,64,25l0,1.44H63.5l-.24-1.26a2.2,2.2,0,0,0-1-.24c-1.35,0-2.43,1-2.43,3s1,3,2.4,3a2.6,2.6,0,0,0,1.13-.24l.24-1.25Z"/><path class="cls-1" d="M64.81,24.06l.21-.17a6.23,6.23,0,0,1,0,9.23L64.81,33a7.32,7.32,0,0,0,0-8.9Z"/><path class="cls-1" d="M71.32,26.55A3.17,3.17,0,0,1,72,24.47a1.79,1.79,0,0,1,1.36-.6c.46,0,.83.15.93.52a.5.5,0,0,1-.56.43,1,1,0,0,1-.7-.32l-.27-.23a1.08,1.08,0,0,0-.36.37,3.56,3.56,0,0,0-.33,1.95h1.36V27H72.12v2.16c0,.55,0,1.09,0,1.64l.9.12v.31H70.5v-.31l.79-.11c0-.56,0-1.09,0-1.65V27h-.83v-.35Z"/><path class="cls-1" d="M74.81,28.86c0,1.3.67,2,1.63,2a1.67,1.67,0,0,0,1.38-.71l.2.13a2,2,0,0,1-1.86,1.12,2.16,2.16,0,0,1-2.22-2.42,2.32,2.32,0,0,1,2.25-2.49A1.76,1.76,0,0,1,78,28.32a1.79,1.79,0,0,1-.07.55Zm1.9-.35c.43,0,.53-.22.53-.55a1.1,1.1,0,0,0-1.09-1.14c-.6,0-1.24.5-1.34,1.67Z"/><path class="cls-1" d="M79.8,28.86c0,1.3.67,2,1.63,2a1.67,1.67,0,0,0,1.38-.71l.2.13a2,2,0,0,1-1.86,1.12,2.16,2.16,0,0,1-2.22-2.42,2.32,2.32,0,0,1,2.25-2.49A1.76,1.76,0,0,1,83,28.32a1.79,1.79,0,0,1-.07.55Zm1.9-.35c.43,0,.53-.22.53-.55a1.1,1.1,0,0,0-1.09-1.14c-.6,0-1.24.5-1.34,1.67Z"/><path class="cls-1" d="M86.06,30.93v.31H83.65v-.31l.78-.11c0-.54,0-1.11,0-1.65V24.75l-.8-.07v-.3L85.17,24l.13.07,0,1.4v3.73c0,.54,0,1.11,0,1.65Z"/><path class="cls-1" d="M90.78,30.16A1.8,1.8,0,0,1,89,31.36a2.19,2.19,0,0,1-2.22-2.44A2.32,2.32,0,0,1,89,26.44a1.67,1.67,0,0,1,1.72,1.26.4.4,0,0,1-.43.36.49.49,0,0,1-.52-.46l-.19-.69a1.73,1.73,0,0,0-.53-.09c-.9,0-1.51.74-1.51,2s.68,2,1.62,2a1.63,1.63,0,0,0,1.37-.74Z"/><path class="cls-1" d="M96.08,30.84a.92.92,0,0,1-.84.5.85.85,0,0,1-.88-.77,2,2,0,0,1-1.47.79,1.18,1.18,0,0,1-1.3-1.2c0-.6.34-1,1.62-1.49a9.57,9.57,0,0,1,1.13-.32V28c0-1-.28-1.22-.94-1.22a2.2,2.2,0,0,0-.56.08l-.19.67c-.08.31-.24.46-.49.46a.39.39,0,0,1-.44-.38,1.75,1.75,0,0,1,1.9-1.21c1,0,1.53.47,1.53,1.69v2.14c0,.47.13.63.36.63a.51.51,0,0,0,.39-.24Zm-1.74-2.19c-.35.1-.69.22-.91.3-.86.33-1,.72-1,1.08a.71.71,0,0,0,.8.76c.35,0,.57-.14,1.12-.57Z"/><path class="cls-1" d="M98.06,27.73c.32-.81.89-1.28,1.44-1.28a.78.78,0,0,1,.71.37c0,.41-.16.67-.56.67a.89.89,0,0,1-.61-.28l-.12-.11a2.38,2.38,0,0,0-.85,1.3v.77c0,.46,0,1.14,0,1.64l.82.12v.31H96.51v-.31l.72-.11c0-.49,0-1.19,0-1.65v-.51c0-.56,0-.9,0-1.29l-.78-.08V27l1.38-.54.13.09Z"/><path class="cls-1" d="M105.57,30.93v.31l-1.52.1-.05-.67a1.68,1.68,0,0,1-1.38.7c-1.2,0-2-1-2-2.41a2.21,2.21,0,0,1,2.1-2.5,1.6,1.6,0,0,1,1.29.64V24.75l-.83-.07v-.3l1.52-.41.13.07,0,1.4v5.4ZM104,27.46a1.63,1.63,0,0,0-1.11-.52c-.75,0-1.4.57-1.4,2s.59,1.94,1.39,1.94A1.37,1.37,0,0,0,104,30.3Z"/><path class="cls-1" d="M114.46,30.9v.34h-2.67V30.9l1-.12-.57-1.72H109.9l-.57,1.71,1,.13v.34h-2.19V30.9l.8-.13L111,24.61h.57l2.12,6.19Zm-2.4-2.23-1-3.05-1,3.05Z"/><path class="cls-1" d="M119.86,29.39l-.07,1.85h-4.87V30.9l.92-.1c0-.87,0-1.74,0-2.58v-.51c0-.88,0-1.76,0-2.61l-.92-.1v-.34h2.77V25l-.92.1c0,.86,0,1.73,0,2.6v.66c0,.74,0,1.6,0,2.46H119l.32-1.43Z"/><path class="cls-1" d="M125.51,29.39l-.07,1.85h-4.87V30.9l.92-.1c0-.87,0-1.74,0-2.58v-.51c0-.88,0-1.76,0-2.61l-.92-.1v-.34h2.77V25l-.92.1c0,.86,0,1.73,0,2.6v.66c0,.74,0,1.6,0,2.46h2.26l.32-1.43Z"/><path class="cls-1" d="M134.51,30.9v.34a2.41,2.41,0,0,1-.74.1c-.61,0-.89-.17-1-.63l-.4-1.56c-.2-.8-.52-1-1.34-1h-.52c0,.92,0,1.78,0,2.62l.92.11v.34h-2.76V30.9l.92-.1c0-.86,0-1.72,0-2.6v-.48c0-.88,0-1.75,0-2.61l-.92-.1v-.34h2.75c1.49,0,2.37.64,2.37,1.72,0,.77-.56,1.46-1.69,1.66a1.49,1.49,0,0,1,1.18,1.24l.46,1.54Zm-3.2-3.1a1.38,1.38,0,0,0,1.57-1.42c0-.84-.47-1.33-1.5-1.33h-.85c0,.87,0,1.73,0,2.75Z"/><path class="cls-1" d="M136.94,25.1c0,.85,0,1.73,0,2.61v.48c0,.86,0,1.73,0,2.59l.92.11v.34h-2.76V30.9l.92-.1c0-.86,0-1.72,0-2.6v-.48c0-.88,0-1.75,0-2.61l-.92-.1v-.34h2.76V25Z"/><path class="cls-1" d="M144.62,28.45l-.59.05c0,.6,0,1.22,0,1.87v.44a4.4,4.4,0,0,1-2.14.57,3.23,3.23,0,0,1-3.32-3.44,3.26,3.26,0,0,1,3.35-3.44,3.55,3.55,0,0,1,2,.48l0,1.45h-.53l-.24-1.22a2.14,2.14,0,0,0-1.11-.29c-1.41,0-2.43,1.09-2.43,3s1,3,2.46,3a3.09,3.09,0,0,0,1.1-.2v-.39c0-.61,0-1.23,0-1.84l-1-.08V28.1h2.56Z"/><path class="cls-1" d="M151.08,25.1c0,.85,0,1.73,0,2.61v.48c0,.86,0,1.73,0,2.6l.92.1v.34h-2.75V30.9l.91-.1c0-.84,0-1.71,0-2.74H147c0,1,0,1.88,0,2.74l.91.1v.34h-2.75V30.9l.92-.1c0-.86,0-1.72,0-2.6v-.48c0-.88,0-1.75,0-2.61l-.92-.1v-.34h2.75V25l-.91.1c0,.84,0,1.7,0,2.57h3.2c0-.86,0-1.72,0-2.57l-.91-.1v-.34H152V25Z"/><path class="cls-1" d="M155.88,25.09c0,.86,0,1.74,0,2.62v.48c0,.86,0,1.73,0,2.59l1,.11v.34h-3V30.9l1-.11c0-.85,0-1.71,0-2.59v-.48c0-.88,0-1.76,0-2.62H153.4l-.27,1.32h-.49l.08-1.75h5.39l.06,1.75h-.48l-.28-1.32Z"/><path class="cls-1" d="M161.23,27.52c1.31.52,1.79,1.07,1.79,2,0,1.17-1,1.87-2.31,1.87a3.73,3.73,0,0,1-1.91-.52l.06-1.38h.5l.25,1.23a2,2,0,0,0,1,.24c1,0,1.57-.43,1.57-1.23,0-.64-.36-.94-1.24-1.29l-.37-.15c-1-.41-1.7-1-1.7-2,0-1.14,1-1.8,2.19-1.8a2.65,2.65,0,0,1,1.62.52l-.06,1.28h-.51l-.25-1.18a1.51,1.51,0,0,0-.8-.2c-.79,0-1.37.39-1.37,1.15s.4,1,1.11,1.28Z"/><path class="cls-1" d="M172,30.9v.34a2.4,2.4,0,0,1-.74.1c-.61,0-.89-.17-1-.63l-.4-1.56c-.2-.8-.52-1-1.34-1H168c0,.92,0,1.78,0,2.62l.92.11v.34h-2.76V30.9l.92-.1c0-.86,0-1.72,0-2.6v-.48c0-.88,0-1.75,0-2.61l-.92-.1v-.34h2.75c1.49,0,2.37.64,2.37,1.72,0,.77-.57,1.46-1.69,1.66a1.49,1.49,0,0,1,1.18,1.24l.46,1.54Zm-3.2-3.1a1.38,1.38,0,0,0,1.57-1.42c0-.84-.47-1.33-1.5-1.33H168c0,.87,0,1.73,0,2.75Z"/><path class="cls-1" d="M177.69,29.49l-.05,1.75h-5.06V30.9l.92-.1c0-.86,0-1.72,0-2.6v-.48c0-.88,0-1.75,0-2.61l-.92-.1v-.34h4.87l.05,1.73H177l-.26-1.3h-2.33c0,.85,0,1.71,0,2.6h1.48l.14-1h.4V29H176l-.13-1H174.4c0,1,0,1.85,0,2.72h2.52l.26-1.32Z"/><path class="cls-1" d="M180.91,27.52c1.31.52,1.79,1.07,1.79,2,0,1.17-1,1.87-2.31,1.87a3.73,3.73,0,0,1-1.91-.52l.06-1.38h.5l.25,1.23a2,2,0,0,0,1,.24c1,0,1.57-.43,1.57-1.23,0-.64-.36-.94-1.24-1.29l-.37-.15c-1-.41-1.7-1-1.7-2,0-1.14,1-1.8,2.19-1.8a2.65,2.65,0,0,1,1.62.52l-.06,1.28h-.51l-.25-1.18a1.51,1.51,0,0,0-.8-.2c-.79,0-1.37.39-1.37,1.15s.4,1,1.11,1.28Z"/><path class="cls-1" d="M188.59,29.49l-.05,1.75h-5.06V30.9l.92-.1c0-.86,0-1.72,0-2.6v-.48c0-.88,0-1.75,0-2.61l-.92-.1v-.34h4.87l.05,1.73h-.48l-.26-1.3h-2.33c0,.85,0,1.71,0,2.6h1.48l.14-1h.4V29h-.4l-.13-1h-1.49c0,1,0,1.85,0,2.72h2.52l.26-1.32Z"/><path class="cls-1" d="M195.24,30.9v.34a2.4,2.4,0,0,1-.74.1c-.61,0-.89-.17-1-.63l-.4-1.56c-.2-.8-.52-1-1.34-1h-.52c0,.92,0,1.78,0,2.62l.92.11v.34H189.4V30.9l.92-.1c0-.86,0-1.72,0-2.6v-.48c0-.88,0-1.75,0-2.61l-.92-.1v-.34h2.75c1.49,0,2.37.64,2.37,1.72,0,.77-.57,1.46-1.69,1.66A1.49,1.49,0,0,1,194,29.28l.46,1.54Zm-3.2-3.1a1.38,1.38,0,0,0,1.57-1.42c0-.84-.47-1.33-1.5-1.33h-.85c0,.87,0,1.73,0,2.75Z"/><path class="cls-1" d="M201.3,25l-.85.12-2.06,6.19H198l-2.3-6.22-.74-.08v-.34h2.66V25l-1,.08,1.72,4.94,1.6-4.93-.91-.09v-.38h2.25Z"/><path class="cls-1" d="M207,29.49l-.05,1.75h-5.06V30.9l.92-.1c0-.86,0-1.72,0-2.6v-.48c0-.88,0-1.75,0-2.61l-.92-.1v-.34h4.87l.05,1.73h-.48l-.26-1.3h-2.33c0,.85,0,1.71,0,2.6h1.48l.14-1h.4V29h-.4l-.13-1h-1.49c0,1,0,1.85,0,2.72h2.52l.26-1.32Z"/><path class="cls-1" d="M210.63,24.66A3,3,0,0,1,213.82,28a3.11,3.11,0,0,1-3.37,3.28h-2.68V30.9l.92-.1c0-.86,0-1.74,0-2.74v-.34c0-.88,0-1.76,0-2.62l-.92-.1v-.34Zm-.24,6.18c1.57,0,2.41-1.07,2.41-2.89S212,25,210.47,25h-.85c0,.87,0,1.77,0,2.67v.34c0,1,0,1.89,0,2.78Z"/></svg>