<svg xmlns="http://www.w3.org/2000/svg" width="56.918" height="126.744" viewBox="0 0 56.918 126.744">
  <path id="패스_1" data-name="패스 1" d="M56.2,48.05c-2.59,9.13-10.69,15.07-17.28,21.27A48.363,48.363,0,0,0,30.21,79.9a53.869,53.869,0,0,0-5.2,12.26,68.586,68.586,0,0,0-1.95,8.97c.08-2.12.18-4.23.35-6.35.39-4.99,1.06-9.97,1.91-14.92.05-.25.1-.49.15-.74q1.17-5.775,2.33-11.55c.33-1.44.66-2.89,1.01-4.32,1.31-5.44,2.75-11.03,5.71-15.84a.4.4,0,0,0,.37.02,40.414,40.414,0,0,0,4.26-2.27q2.1-1.2,4.15-2.47a32.754,32.754,0,0,0,6.96-5.26,23.577,23.577,0,0,0,5.8-14.29A30.5,30.5,0,0,0,51.81,6.4a3.817,3.817,0,0,0-2.43-2.17,2.911,2.911,0,0,0-2.74,1.35C45.31,7.45,45.72,9.87,45.3,12a4.025,4.025,0,0,1-2.42,3.1c-.51.25-1.02.49-1.5.76-.48-.81-1.73-.82-2.56-.53-1.27.45-2.17,1.72-3.54,1.92-.86.13-1.23-.37-1.8-.9a3.148,3.148,0,0,0-1.41-.74,3.261,3.261,0,0,0-2.98.82c-.34.33.18.85.52.52a2.525,2.525,0,0,1,2.98-.36c.46.27.74.75,1.17,1.05a2.214,2.214,0,0,0,1.39.37,5.727,5.727,0,0,0,2.83-1.34,3.585,3.585,0,0,1,1.62-.71,1.991,1.991,0,0,1,1.14.27,6.627,6.627,0,0,0-1.26,1.07,7.727,7.727,0,0,0-1.74,7.07.327.327,0,0,0,.63-.17,7.009,7.009,0,0,1,1.66-6.34A8.473,8.473,0,0,1,42.88,16a5.427,5.427,0,0,0,2.55-1.97c1.06-1.72.79-3.88,1.07-5.8a4.1,4.1,0,0,1,1.53-2.97c1.37-.87,2.39.31,3.02,1.44,5,9.01,6.47,21.36-.89,29.56a31.213,31.213,0,0,1-7.1,5.52q-2.115,1.3-4.26,2.53c-1.43.82-2.92,1.56-4.31,2.44a.411.411,0,0,0-.16.19.449.449,0,0,0-.11-.01c.01-.01.02-.02.03-.02,7.23-4.62,13.29-11.63,16.08-19.79.06-.19-.24-.32-.32-.14a46.863,46.863,0,0,1-6.59,11.17,39.356,39.356,0,0,1-7.76,7.27c5.47-6.04,9-13.57,11.61-21.27.88-2.59,1.7-5.19,2.35-7.85a.182.182,0,0,0-.35-.1c-1.62,4.5-3,9.07-4.87,13.47a64.377,64.377,0,0,1-6.64,12.31,37.3,37.3,0,0,1-4.59,5.22,40.687,40.687,0,0,0,5.6-11.08A71.459,71.459,0,0,0,41.95,22.2c.03-.25-.37-.29-.43-.06-1.19,4.47-1.99,9.03-3.42,13.44a44.918,44.918,0,0,1-3.44,8.07,44,44,0,0,0,2.01-9.36,31.172,31.172,0,0,0,.19-6.03,7.008,7.008,0,0,0-1.46-4.07,4.021,4.021,0,0,0-1.86-1.17,9.995,9.995,0,0,1-2.85-.91c-1.3-.89-1.47-2.64-1.67-4.08a8.586,8.586,0,0,0-1.33-4.13,4.792,4.792,0,0,0-3.88-1.78c-1.65.05-2.77,1.05-3.99,2.03a3.625,3.625,0,0,1-2.35,1.02,3.4,3.4,0,0,1-1.84-.77,38.313,38.313,0,0,0-3.2-2.64,3.513,3.513,0,0,0-3.87.1c-.14.1-.26.2-.39.31.62-2.67,1.46-5.5,3.48-7.43a6.51,6.51,0,0,1,4.64-1.81,6.791,6.791,0,0,1,2.63.57,15.85,15.85,0,0,0,2.35,1.04c1.61.41,2.82-.53,4.12-1.34A15.566,15.566,0,0,1,30.51.94a6.808,6.808,0,0,1,4.61.61c1.37.78,1.91,2.51,3.4,3.09,1.7.66,3.5-.37,4.98-1.11,1.38-.69,3.29-1.2,4.52.03.19.19.45-.05.35-.27-.59-1.3-2.05-1.41-3.3-1.17-1.66.32-3.01,1.46-4.66,1.81a2.518,2.518,0,0,1-2.63-.88A11.055,11.055,0,0,0,36.2,1.28a6.757,6.757,0,0,0-4.37-1.3A12.026,12.026,0,0,0,26.7,1.67c-.77.43-1.51.89-2.25,1.36a3.668,3.668,0,0,1-2.99.86,16.9,16.9,0,0,1-2.38-1.08,7.09,7.09,0,0,0-2.57-.59A7.256,7.256,0,0,0,11.89,3.7C9.08,5.82,8.08,9.5,7.34,12.77a.307.307,0,0,0,.06.28c-1.66,2.4-.84,6.16.02,8.72a20.636,20.636,0,0,0,6.05,9.09c3.09,2.66,6.85,4.33,10.24,6.55,3.16,2.07,6.28,4.99,7.07,8.84a7.839,7.839,0,0,1,.16,1.44c-.02.04-.03.08-.05.12a.17.17,0,0,0,.04.18v.09c-1.11,5.47-2.24,10.94-3.33,16.42Q26.13,70.59,25,76.74c-.96,5.24-1.73,10.52-2.19,15.83-.34,3.88-.62,7.76-.71,11.65-.48-.96-1.05-1.89-1.52-2.84-.22-.44-.43-.89-.63-1.34-1.05-4.28-.27-9,.43-13.25.83-4.99,1.97-9.93,2.25-15A32.917,32.917,0,0,0,20.4,57.63a40.555,40.555,0,0,0-7.28-11.65A61.289,61.289,0,0,0,1.04,35.69a.24.24,0,0,0-.3,0L.5,35.45c-.28-.26-.69.16-.42.42,7.01,6.6,10.4,16.05,11.3,25.46A83.965,83.965,0,0,1,11.2,76.7c-.42,4.76-.91,9.66.2,14.37,1.07,4.56,4.02,9.23,8.34,11.34a.327.327,0,0,0,.29,0,15.7,15.7,0,0,0,2.05,3.63h0c0,.85,0,1.71.02,2.56.01.58.03,1.16.05,1.74-.03.09-.06.17-.09.26a.122.122,0,0,0,.1.17c.01.27.02.53.03.8-.04.22-.07.44-.1.66a.126.126,0,0,0,.14.14,90.366,90.366,0,0,0,1.69,14.21c.04.21.4.17.38-.05A158.319,158.319,0,0,1,23,110.7c-.01-.25-.01-.49-.01-.74.18-.58.36-1.16.56-1.74a36.418,36.418,0,0,1,7.38-8.57,117.532,117.532,0,0,0,10.32-9.89,63.971,63.971,0,0,0,13.33-25.5,71.282,71.282,0,0,0,2.33-16.11A.364.364,0,0,0,56.2,48.05ZM28.24,39.91c-2.5-2.8-5.94-4.49-9.15-6.32a25.077,25.077,0,0,1-8.73-7.44,20.227,20.227,0,0,1-2.39-4.76,14.006,14.006,0,0,1-.94-5.68c.17-1.88,1.5-4.06,3.64-3.96,1.45.07,2.51,1.3,3.48,2.24a5.762,5.762,0,0,0,2.93,1.85c1.47.23,2.62-.67,3.69-1.55,1.35-1.11,2.78-1.82,4.54-1.21a4.306,4.306,0,0,1,2.72,3.39,30.463,30.463,0,0,0,.91,4.24,3.987,3.987,0,0,0,2.89,2.55,6.141,6.141,0,0,1,2.87,1.15,4.7,4.7,0,0,1,1.2,2.11,17.521,17.521,0,0,1,.29,6,49.655,49.655,0,0,1-2.81,13.24q-.51.78-1.08,1.53a11.539,11.539,0,0,0,.26-1.56,15.705,15.705,0,0,0,.91-3.08,17.5,17.5,0,0,0,.16-5.82,16.211,16.211,0,0,0-1.82-5.5c-1.02-1.87-2.84-3.51-3.08-5.71-.03-.28-.47-.29-.44,0,.2,1.97,1.55,3.43,2.53,5.07a15.908,15.908,0,0,1,2.02,5.55,17.148,17.148,0,0,1-.02,6.02c-.06.35-.15.69-.24,1.02,0-.07-.01-.14-.01-.21a19.471,19.471,0,0,0-1.16-5.65,18.5,18.5,0,0,0-2.8-5c-1.37-1.75-2.99-3.3-4.29-5.1A10.49,10.49,0,0,1,22,20.61c.02-.29-.42-.28-.44,0-.31,4.08,2.51,7.35,4.95,10.28a25.908,25.908,0,0,1,3.53,5.16,18.717,18.717,0,0,1,1.72,5.9,18.962,18.962,0,0,1,.01,3.69c-.08.2-.16.4-.25.6a2.166,2.166,0,0,0-.04-.25c.11-3.37-.38-6.66-2.51-9.41-1.89-2.43-4.44-4.19-6.59-6.36a13.741,13.741,0,0,1-3.02-4.33.187.187,0,0,0-.36.1c1.54,6.18,9.12,8.2,11.28,14.05a13.762,13.762,0,0,1,.76,4.41A13.929,13.929,0,0,0,28.24,39.91ZM15.19,97.35a17.654,17.654,0,0,1-2.89-6.04c-1.25-4.72-.76-9.69-.36-14.49.83-9.86.68-20-3.2-29.27A35.9,35.9,0,0,0,2.31,37.31c7.07,5.16,13.41,11.6,16.87,19.75a32.409,32.409,0,0,1,2.53,14.09c-.21,5.06-1.28,10.04-2.05,15.03a65.08,65.08,0,0,0-.85,8.35c-.02.94-.02,1.92.05,2.89-.09-.23-.18-.47-.27-.71a31.073,31.073,0,0,1-1.92-10c-.05-3.61.32-7.22.37-10.83a99.93,99.93,0,0,0-.3-10.53,34.575,34.575,0,0,0-2.4-10.37c-.09-.2-.38-.03-.3.17,2.71,6.39,2.55,13.65,2.27,20.46-.15,3.61-.6,7.21-.58,10.83a30.476,30.476,0,0,0,1.73,9.82c.57,1.67,1.27,3.3,2,4.91.06.13.12.26.17.39A21.61,21.61,0,0,1,15.19,97.35ZM49.21,76.33a64.921,64.921,0,0,1-8,12.15A100.818,100.818,0,0,1,31,98.52a39.075,39.075,0,0,0-6.57,7.23,49.331,49.331,0,0,1,2.61-5.63,94.62,94.62,0,0,1,7.37-11.25c1.59-2.13,3.23-4.21,4.88-6.29.17-.21-.13-.52-.3-.3-5.74,7.03-11.54,14.14-14.88,22.69-.42,1.08-.81,2.18-1.14,3.3,0-.36-.01-.73-.01-1.09a.3.3,0,0,0,.1-.21c.73-8.95,2.77-17.97,7.26-25.82a46.114,46.114,0,0,1,8.66-10.72c3.46-3.26,7.2-6.23,10.49-9.67a30.136,30.136,0,0,0,6.67-10.11A61.5,61.5,0,0,1,49.21,76.33Z" transform="translate(0.008 0.026)" fill="#474242"/>
</svg>
