<svg id="그룹_4" data-name="그룹 4" xmlns="http://www.w3.org/2000/svg" width="49.806" height="49.81" viewBox="0 0 49.806 49.81">
  <g id="그룹_1" data-name="그룹 1">
    <path id="패스_1" data-name="패스 1" d="M28.7,41.13l-4.54,4.54A14.156,14.156,0,0,1,4.14,25.65l4.54-4.54a3.231,3.231,0,0,1,4.57,4.57L8.71,30.22A7.693,7.693,0,0,0,19.59,41.1l4.54-4.54a3.231,3.231,0,1,1,4.57,4.57Z" fill="#232323"/>
  </g>
  <g id="그룹_2" data-name="그룹 2">
    <path id="패스_2" data-name="패스 2" d="M45.67,24.16,41.13,28.7a3.231,3.231,0,0,1-4.57-4.57l4.54-4.54A7.693,7.693,0,1,0,30.22,8.71l-4.54,4.54a3.231,3.231,0,0,1-4.57-4.57l4.54-4.54A14.156,14.156,0,1,1,45.67,24.16Z" fill="#232323"/>
  </g>
  <g id="그룹_3" data-name="그룹 3">
    <path id="패스_3" data-name="패스 3" d="M36.81,17.56,17.42,36.95a3.231,3.231,0,1,1-4.57-4.57L32.24,12.99a3.231,3.231,0,0,1,4.57,4.57Z" fill="#232323"/>
  </g>
</svg>
